<svg width="60" height="51" viewBox="0 0 60 51" fill="none" xmlns="http://www.w3.org/2000/svg">
<path d="M13.4146 0C6.10846 0 0 6.04617 0 13.2728V36.962C0 44.1864 6.11077 50.2326 13.4146 50.2326H46.5877C53.8892 50.2326 60 44.1864 60 36.9598V13.2728C60 6.04846 53.8892 0 46.5854 0H13.4146ZM13.4146 4.5666H46.5877C51.2838 4.5666 55.3846 8.62402 55.3846 13.2728V15.9831H41.5385C40.2577 15.9831 39.2308 14.967 39.2308 13.6998C39.2308 12.4326 40.2577 11.4165 41.5385 11.4165C42.1505 11.4165 42.7375 11.1759 43.1702 10.7477C43.603 10.3195 43.8462 9.73876 43.8462 9.13319C43.8462 8.52763 43.603 7.94686 43.1702 7.51866C42.7375 7.09046 42.1505 6.84989 41.5385 6.84989C37.7423 6.84989 34.6154 9.94376 34.6154 13.6998C34.6154 16.6498 36.5631 19.166 39.2308 20.1227V31.4661C36.4662 33.3247 34.6154 36.4437 34.6154 39.9577C34.6154 42.0652 35.2915 44.0243 36.4177 45.666H23.5846C24.7511 43.9856 25.3785 41.9963 25.3846 39.9577C25.3846 36.446 23.5338 33.3247 20.7692 31.4661V20.1204C23.4369 19.166 25.3846 16.6498 25.3846 13.6998C25.3846 9.94376 22.2577 6.84989 18.4615 6.84989H13.8462C13.7739 6.84653 13.7015 6.84653 13.6292 6.84989C13.5577 6.8466 13.4861 6.8466 13.4146 6.84989C12.8026 6.90652 12.2383 7.20138 11.846 7.66962C11.4537 8.13786 11.2655 8.74111 11.3227 9.34668C11.3799 9.95225 11.6779 10.5105 12.1512 10.8987C12.6244 11.2869 13.2341 11.4731 13.8462 11.4165H18.4615C19.7423 11.4165 20.7692 12.4326 20.7692 13.6998C20.7692 14.967 19.7423 15.9831 18.4615 15.9831H4.61538V13.2705C4.61538 8.62402 8.71615 4.5666 13.4146 4.5666ZM4.61538 20.5497H16.1538V29.6829H4.61538V20.5497ZM43.8462 20.5497H55.3846V29.6829H43.8462V20.5497ZM4.61538 34.2495H15C18.09 34.2495 20.7692 36.9004 20.7692 39.9577C20.7692 43.0151 18.09 45.666 15 45.666H13.4123C8.71615 45.666 4.61538 41.6085 4.61538 36.9598V34.2495ZM45 34.2495H55.3846V36.962C55.3846 41.6085 51.2838 45.666 46.5854 45.666H45C41.91 45.666 39.2308 43.0151 39.2308 39.9577C39.2308 36.9004 41.91 34.2495 45 34.2495Z" fill="#EEEEEE"/>
</svg>
