<svg width="30" height="37" viewBox="0 0 30 37" fill="none" xmlns="http://www.w3.org/2000/svg">
<path d="M22.9994 36.5359C22.3008 36.2532 21.8017 35.621 21.6853 34.8725C21.6021 34.44 21.6853 34.1405 22.3507 32.9428C24.8459 28.4514 26.1268 23.3778 26.0602 18.2376C26.1268 13.2472 24.9124 8.37317 22.517 3.99821C22.1677 3.26628 21.8516 2.56761 21.5855 1.81905C21.6853 1.18692 22.0013 0.604702 22.517 0.255371C23.2656 -0.143865 24.1805 -0.0606913 24.8625 0.405084C25.3283 1.00394 25.7275 1.60279 26.0602 2.30146C27.8501 5.72973 29.0693 9.42675 29.67 13.2472C30.0526 16.2581 30.1025 19.3189 29.8197 22.3464C29.304 26.239 28.1562 29.9985 26.3929 33.5084C25.3283 35.6377 24.7295 36.5359 24.0973 36.5359H22.9994ZM15.7466 32.8597C14.7985 32.5935 14.1996 31.6287 14.3992 30.6639C14.3992 30.4642 14.9149 29.5493 15.3807 28.6178C17.3436 24.8417 18.192 20.5831 17.8094 16.3413C17.5765 13.2971 16.6948 10.3361 15.2476 7.65787C14.1996 5.56188 14.1331 5.22919 14.7486 4.33091C15.4805 3.5158 16.6948 3.39935 17.5931 4.09802C18.7908 5.86131 19.739 7.79095 20.4377 9.8204C22.5669 16.125 22.2342 22.9952 19.5061 29.0503C18.1088 32.1943 17.1273 33.209 15.7466 32.7765V32.8597ZM8.26097 29.1501C7.96478 29.0171 7.70203 28.8197 7.49193 28.5722C7.28183 28.3247 7.12969 28.0333 7.04663 27.7195C7.04663 27.3868 7.04663 26.9543 7.7952 25.6235C9.01465 23.4126 9.65421 20.9289 9.65421 18.404C9.65421 15.8791 9.01465 13.3953 7.7952 11.1845C6.71393 9.08847 6.71393 8.65596 7.59558 7.85749C7.91164 7.49153 8.37742 7.30854 8.87646 7.37508C9.94109 7.37508 10.5399 7.89076 11.4382 9.7705C12.8526 12.3674 13.5852 15.2806 13.5675 18.2376C13.634 21.2485 12.9021 24.2428 11.4549 26.8877C10.5566 28.6344 10.1074 29.0503 9.20916 29.2C8.8931 29.2333 8.5604 29.2 8.26097 29.0503V29.1501ZM1.25771 25.6069C0.708757 25.3407 0.276251 24.8916 0.0599985 24.3093C-0.10635 23.7271 0.0599986 23.2281 0.725392 22.1634C1.55713 21.0323 1.95637 19.635 1.8732 18.2376C1.98964 16.8237 1.60704 15.4263 0.791931 14.2619C0.515829 13.8425 0.271181 13.4033 0.0599985 12.9478C-0.122985 11.8998 0.575678 10.9017 1.72348 10.702C2.62176 10.5357 3.25389 10.9183 4.08563 12.1825C5.26577 13.9784 5.8946 16.0804 5.8946 18.2293C5.8946 20.3782 5.26577 22.4802 4.08563 24.2761C3.23725 25.557 2.27243 25.9396 1.27434 25.6069H1.25771Z" fill="#EEEEEE"/>
</svg>
