<svg width="882" height="699" viewBox="0 0 882 699" fill="none" xmlns="http://www.w3.org/2000/svg">
<path d="M479.869 112.433C507.294 120.956 522.617 150.097 514.094 177.522L495.747 236.556C487.224 263.981 458.082 279.303 430.657 270.78C403.232 262.257 387.909 233.115 396.433 205.69L414.779 146.657C423.303 119.232 452.444 103.909 479.869 112.433Z" fill="#64D67D"/>
<path d="M683.91 238.164C689.491 228.055 703.922 227.779 709.886 237.666L842.735 457.912C848.699 467.799 841.723 480.435 830.178 480.656L573.015 485.584C561.471 485.805 554.015 473.446 559.596 463.337L683.91 238.164Z" fill="#3CD4E9"/>
<path d="M122.03 239.785C122.012 242.546 124.237 244.81 126.997 244.715C149.379 243.942 171.153 237.021 189.909 224.664C210.058 211.388 225.818 192.436 235.196 170.204C244.574 147.972 247.149 123.458 242.595 99.7621C238.041 76.0664 226.563 54.2533 209.612 37.0811C192.66 19.9089 170.998 8.14902 147.363 3.28844C123.728 -1.57214 99.1831 0.684932 76.8312 9.77424C54.4793 18.8636 35.3246 34.3769 21.7894 54.3524C9.19055 72.9461 1.98728 94.6286 0.924932 116.999C0.793935 119.758 3.02865 122.012 5.79002 122.03L117.788 122.755C120.549 122.773 122.773 125.026 122.755 127.787L122.03 239.785Z" fill="#00C16E"/>
<g filter="url(#filter0_b_58_1519)">
<g clip-path="url(#clip0_58_1519)">
<rect x="233.987" y="35.4924" width="640" height="410" rx="30" transform="rotate(28.1277 233.987 35.4924)" fill="black" fill-opacity="0.2"/>
<path d="M97.2695 291.243L661.685 592.964L605.112 698.791L40.697 397.071L97.2695 291.243Z" fill="url(#paint0_linear_58_1519)"/>
<path d="M93.1733 391.389L86.0078 387.559L82.873 390.135L79.2131 388.179L94.3421 376.423L97.8697 378.308L96.5204 397.431L92.7723 395.427L93.1733 391.389ZM93.4985 388.076L94.2099 380.859L88.604 385.46L93.4985 388.076ZM107.955 403.543L107.277 397.653L107.1 397.558L103.992 395.897L101.693 400.196L98.1216 398.287L106.372 382.853L113.052 386.424C114.419 387.155 115.481 388.016 116.236 389.005C117.007 390.003 117.44 391.066 117.536 392.195C117.632 393.324 117.374 394.461 116.761 395.607C116.148 396.754 115.338 397.597 114.332 398.136C113.348 398.668 112.231 398.884 110.981 398.783L111.791 405.594L107.955 403.543ZM113.145 393.675C113.609 392.807 113.683 391.997 113.368 391.242C113.061 390.474 112.371 389.802 111.298 389.229L108.388 387.673L105.512 393.053L108.422 394.608C109.495 395.182 110.437 395.383 111.247 395.211C112.057 395.039 112.689 394.527 113.145 393.675ZM121.05 410.883C118.845 409.705 117.451 408.176 116.869 406.296C116.301 404.423 116.622 402.356 117.832 400.092L122.452 391.449L126.024 393.359L121.474 401.869C119.997 404.632 120.405 406.627 122.698 407.853C123.815 408.45 124.844 408.575 125.786 408.228C126.735 407.866 127.591 406.972 128.353 405.546L132.903 397.036L136.43 398.922L131.81 407.564C130.6 409.828 129.052 411.24 127.165 411.8C125.293 412.367 123.254 412.062 121.05 410.883ZM154.114 408.375L145.864 423.808L142.932 422.241L140.246 408.757L135.237 418.127L131.71 416.242L139.96 400.809L142.914 402.388L145.578 415.86L150.587 406.489L154.114 408.375ZM169.804 436.606L174.732 427.334L166.112 432.535L164.503 431.674L163.955 421.828L159.111 430.89L155.759 429.098L164.01 413.665L166.964 415.244L167.613 427.923L178.429 421.373L181.361 422.94L173.155 438.397L169.804 436.606ZM184.149 444.615C182.547 443.758 181.284 442.639 180.36 441.257C179.45 439.882 178.95 438.396 178.86 436.798C178.792 435.193 179.162 433.633 179.971 432.119C180.781 430.605 181.868 429.438 183.232 428.618C184.619 427.791 186.137 427.374 187.785 427.367C189.448 427.367 191.08 427.796 192.682 428.652C194.284 429.509 195.54 430.624 196.45 431.999C197.359 433.373 197.855 434.867 197.938 436.479C198.028 438.077 197.669 439.634 196.86 441.147C196.051 442.661 194.952 443.832 193.565 444.659C192.186 445.471 190.672 445.881 189.024 445.888C187.376 445.896 185.751 445.471 184.149 444.615ZM185.776 441.572C186.687 442.059 187.62 442.293 188.575 442.275C189.538 442.241 190.425 441.96 191.237 441.43C192.064 440.909 192.733 440.17 193.244 439.215C193.755 438.259 193.997 437.293 193.972 436.315C193.961 435.346 193.698 434.459 193.183 433.654C192.676 432.835 191.967 432.182 191.056 431.695C190.144 431.208 189.207 430.981 188.245 431.014C187.29 431.033 186.399 431.303 185.572 431.825C184.759 432.354 184.098 433.097 183.587 434.052C183.077 435.008 182.827 435.97 182.837 436.94C182.863 437.917 183.129 438.816 183.636 439.635C184.151 440.439 184.864 441.085 185.776 441.572ZM217.824 442.432L209.573 457.866L206.002 455.956L209.384 449.629L202.373 445.881L198.991 452.208L195.419 450.299L203.669 434.866L207.241 436.775L203.988 442.86L210.999 446.608L214.252 440.523L217.824 442.432ZM225.157 461.944L217.991 458.113L214.856 460.69L211.197 458.733L226.326 446.977L229.853 448.863L228.504 467.985L224.756 465.982L225.157 461.944ZM225.482 458.631L226.193 451.414L220.587 456.014L225.482 458.631ZM252.51 460.975L244.26 476.408L241.327 474.84L238.642 461.357L233.633 470.727L230.105 468.841L238.355 453.408L241.31 454.987L243.973 468.459L248.982 459.089L252.51 460.975Z" fill="white"/>
<path d="M104.573 355.471C103.585 354.943 102.835 354.225 102.323 353.316C101.817 352.396 101.595 351.34 101.658 350.148C101.726 348.945 102.113 347.685 102.817 346.368C103.521 345.051 104.351 344.036 105.307 343.322C106.269 342.597 107.27 342.195 108.31 342.116C109.356 342.025 110.373 342.244 111.361 342.772C112.349 343.3 113.096 344.024 113.601 344.945C114.125 345.86 114.353 346.919 114.284 348.122C114.222 349.313 113.839 350.567 113.135 351.884C112.431 353.201 111.598 354.222 110.635 354.948C109.679 355.661 108.672 356.06 107.614 356.145C106.574 356.224 105.56 355.999 104.573 355.471ZM105.638 353.478C106.52 353.949 107.408 353.956 108.304 353.497C109.211 353.045 110.051 352.095 110.824 350.649C111.597 349.203 111.92 347.977 111.792 346.971C111.677 345.972 111.178 345.236 110.296 344.765C109.426 344.3 108.537 344.293 107.63 344.746C106.735 345.205 105.9 346.157 105.127 347.603C104.354 349.05 104.025 350.273 104.141 351.272C104.269 352.278 104.768 353.013 105.638 353.478ZM122.241 348.588C123.934 349.493 124.963 350.723 125.326 352.278C125.701 353.839 125.36 355.607 124.304 357.583C123.563 358.97 122.675 360.023 121.641 360.74C120.614 361.446 119.503 361.812 118.31 361.839C117.134 361.861 115.946 361.551 114.747 360.91C114.112 360.571 113.547 360.185 113.052 359.754C112.574 359.318 112.199 358.86 111.926 358.382L113.697 357.106C114.094 357.832 114.769 358.45 115.722 358.959C116.909 359.594 118.033 359.726 119.093 359.355C120.153 358.985 121.051 358.111 121.786 356.736L121.796 356.718C121.205 356.947 120.568 357.022 119.884 356.943C119.206 356.853 118.515 356.62 117.809 356.242C116.998 355.809 116.35 355.266 115.867 354.615C115.39 353.952 115.123 353.234 115.067 352.463C115.01 351.692 115.183 350.931 115.586 350.178C116.013 349.378 116.587 348.786 117.307 348.4C118.034 348.002 118.826 347.821 119.684 347.856C120.542 347.891 121.395 348.135 122.241 348.588ZM119.212 354.679C119.953 355.075 120.659 355.196 121.331 355.041C122.016 354.893 122.521 354.513 122.848 353.901C123.168 353.302 123.203 352.685 122.952 352.052C122.719 351.413 122.203 350.88 121.403 350.453C120.686 350.07 120 349.952 119.346 350.102C118.698 350.239 118.204 350.625 117.865 351.26C117.519 351.907 117.469 352.538 117.714 353.153C117.96 353.768 118.459 354.277 119.212 354.679ZM134.552 352.176L136.528 353.232L121.825 366.735L119.85 365.679L134.552 352.176ZM138.623 370.952L137.586 372.892L128.485 368.027L129.305 366.493L136.697 364.457C137.533 364.224 138.148 363.963 138.544 363.676C138.958 363.383 139.268 363.042 139.476 362.654C139.784 362.078 139.825 361.533 139.601 361.02C139.376 360.507 138.888 360.049 138.135 359.647C136.877 358.974 135.683 358.888 134.554 359.388L133.609 357.296C134.437 356.906 135.351 356.752 136.351 356.833C137.369 356.909 138.383 357.217 139.394 357.758C140.735 358.474 141.635 359.364 142.095 360.426C142.556 361.488 142.493 362.566 141.909 363.66C141.55 364.33 141.073 364.884 140.477 365.321C139.88 365.758 138.981 366.139 137.779 366.464L132.802 367.841L138.623 370.952ZM146.817 368.098C148.557 369.028 149.662 370.058 150.133 371.186C150.609 372.302 150.536 373.443 149.914 374.607C149.518 375.348 148.978 375.92 148.292 376.325C147.607 376.73 146.806 376.914 145.888 376.877C144.971 376.84 143.977 376.536 142.907 375.964C142.025 375.492 141.238 374.913 140.547 374.226C139.863 373.527 139.357 372.804 139.032 372.055L140.954 370.792C141.212 371.414 141.598 372.006 142.114 372.569C142.647 373.126 143.255 373.587 143.937 373.952C144.748 374.385 145.471 374.56 146.106 374.476C146.759 374.387 147.242 374.048 147.556 373.46C147.896 372.825 147.898 372.213 147.562 371.626C147.244 371.032 146.479 370.412 145.268 369.765L142.287 368.171L146.515 361.791L153.764 365.666L152.736 367.588L147.427 364.75L145.635 367.466L146.817 368.098Z" fill="white"/>
<path d="M123.478 327.025L115.068 333.641L113.846 332.988L114.663 322.312L115.996 323.025L115.313 331.787L122.244 326.365L123.478 327.025ZM126.345 336.891L121.752 334.436L119.646 336.088L118.374 335.409L126.908 328.858L128.131 329.512L127.437 340.253L126.14 339.56L126.345 336.891ZM126.441 335.672L126.84 330.441L122.712 333.679L126.441 335.672ZM133.346 332.3L134.581 332.96L130.535 340.528L135.214 343.03L134.64 344.104L128.726 340.942L133.346 332.3ZM140.677 336.218L141.912 336.878L137.291 345.521L136.057 344.861L140.677 336.218ZM144.499 338.262L148.141 340.209C149.055 340.697 149.769 341.312 150.283 342.052C150.797 342.793 151.072 343.596 151.107 344.461C151.154 345.322 150.951 346.177 150.498 347.025C150.045 347.873 149.445 348.52 148.698 348.967C147.963 349.411 147.145 349.625 146.244 349.608C145.342 349.592 144.435 349.34 143.521 348.851L139.879 346.904L144.499 338.262ZM144.021 347.738C144.721 348.112 145.407 348.304 146.079 348.314C146.759 348.328 147.373 348.169 147.921 347.838C148.473 347.498 148.92 347.007 149.264 346.365C149.607 345.723 149.764 345.082 149.736 344.442C149.712 343.794 149.505 343.192 149.115 342.634C148.733 342.081 148.193 341.617 147.493 341.243L145.159 339.996L141.688 346.49L144.021 347.738ZM159.157 347.479L156.194 345.895L156.768 344.82L163.917 348.642L163.343 349.716L160.379 348.132L156.334 355.7L155.111 355.047L159.157 347.479ZM172.694 353.334L168.074 361.977L166.839 361.317L168.899 357.464L163.935 354.811L161.876 358.663L160.641 358.003L165.262 349.361L166.496 350.021L164.51 353.737L169.473 356.39L171.46 352.674L172.694 353.334ZM176.439 366.448L175.994 362.797C175.755 362.69 175.569 362.602 175.437 362.531L173.301 361.39L171.896 364.019L170.661 363.359L175.281 354.717L178.652 356.519C179.771 357.117 180.509 357.855 180.865 358.734C181.221 359.612 181.148 360.52 180.646 361.459C180.29 362.125 179.822 362.605 179.242 362.898C178.662 363.192 178.01 363.282 177.286 363.171L177.785 367.168L176.439 366.448ZM175.961 361.462C176.743 361.88 177.43 362.031 178.022 361.913C178.614 361.796 179.077 361.424 179.412 360.799C179.746 360.173 179.796 359.586 179.56 359.036C179.329 358.479 178.822 357.991 178.04 357.573L175.942 356.451L173.862 360.34L175.961 361.462ZM183.159 370.168C182.007 369.552 181.286 368.743 180.996 367.741C180.706 366.739 180.891 365.621 181.551 364.387L184.178 359.473L185.412 360.133L182.812 364.997C181.822 366.849 182.137 368.209 183.759 369.075C184.549 369.498 185.275 369.595 185.937 369.367C186.603 369.13 187.187 368.543 187.689 367.604L190.289 362.74L191.487 363.38L188.86 368.294C188.195 369.537 187.366 370.316 186.372 370.631C185.383 370.938 184.312 370.784 183.159 370.168Z" fill="white"/>
<g clip-path="url(#clip1_58_1519)">
<path d="M518.941 622.8L521.406 618.189C522.351 616.421 521.908 614.702 520.093 613.732C519.186 613.247 518.038 613.029 516.823 613.664C516.746 612.535 516.237 611.67 515.102 611.064C514.346 610.659 513.467 610.486 512.409 611.008L512.902 610.085L511.314 609.236L507.37 616.614L508.958 617.463L511.136 613.39C511.834 612.084 512.844 611.833 513.903 612.399C514.961 612.964 515.121 613.939 514.464 615.169L512.286 619.242L513.874 620.091L516.052 616.018C516.75 614.712 517.835 614.501 518.818 615.026C519.877 615.592 520.036 616.567 519.379 617.796L517.201 621.87L518.941 622.8ZM546.404 627.994L543.833 626.62L545.024 624.391L543.436 623.542L542.245 625.771L540.808 625.003L540.027 626.463L541.464 627.231L539.656 630.613C538.752 632.304 538.899 633.666 540.714 634.637C541.395 635.001 542.274 635.174 542.968 635.15L543.253 633.524C542.635 633.589 542.065 633.383 541.687 633.181C540.931 632.776 540.875 632.154 541.286 631.385L543.052 628.08L545.623 629.454L546.404 627.994ZM559.948 635.036C559.04 634.551 558.189 634.689 557.482 635.102L557.975 634.18L556.387 633.331L552.442 640.709L554.031 641.558L556.249 637.408C556.906 636.178 557.805 635.769 558.788 636.295C559.091 636.456 559.428 636.736 559.69 636.974L560.965 635.68C560.704 635.441 560.25 635.198 559.947 635.037L559.948 635.036ZM539.194 624.93C538.725 623.988 537.789 623.192 536.655 622.585C534.84 621.615 533.137 621.891 532.357 623.351C531.699 624.581 532.237 625.757 533.702 626.837L534.417 627.318C535.167 627.916 535.497 628.389 535.292 628.774C535.004 629.312 534.194 629.373 533.135 628.807C532.076 628.241 531.45 627.411 531.125 626.744L529.712 627.57C530.215 628.629 531.185 629.543 532.319 630.149C534.437 631.281 536.181 630.929 536.921 629.546C537.619 628.239 537.006 627.022 535.616 625.983L534.901 625.502C534.262 625.061 533.815 624.624 534.061 624.163C534.349 623.625 535.042 623.601 535.874 624.046C536.782 624.531 537.484 625.4 537.814 625.873L539.194 624.93ZM581.803 646.72C580.895 646.235 580.044 646.373 579.337 646.785L579.83 645.863L578.242 645.014L574.298 652.392L575.886 653.241L578.104 649.091C578.762 647.861 579.661 647.453 580.644 647.978C580.947 648.14 581.284 648.419 581.545 648.657L582.82 647.363C582.559 647.124 582.105 646.882 581.803 646.72ZM559.481 639.728C558.29 641.957 558.939 644.38 561.284 645.633C562.343 646.199 563.222 646.373 564.307 646.162L564.249 644.451C563.398 644.589 562.67 644.496 561.989 644.132C560.703 643.445 560.289 642.038 561.069 640.577C561.809 639.194 563.209 638.757 564.536 639.367C565.217 639.731 565.698 640.285 566.057 641.07L567.511 640.167C567.084 639.148 566.451 638.513 565.392 637.947C563.048 636.694 560.673 637.5 559.481 639.728ZM574.152 647.571L576.125 643.882L574.536 643.033L574.043 643.955C573.884 642.981 573.333 642.192 572.35 641.667C570.308 640.575 567.857 641.34 566.666 643.569C565.474 645.798 566.2 648.261 568.241 649.352C569.3 649.918 570.262 649.938 571.085 649.489L570.592 650.411L572.18 651.26L574.152 647.571ZM568.329 644.458C569.028 643.152 570.435 642.521 571.796 643.248C573.081 643.935 573.455 645.42 572.716 646.803C572.017 648.11 570.534 648.7 569.249 648.013C567.929 647.208 567.631 645.765 568.329 644.458ZM551.402 630.469C549.284 629.337 546.95 630.065 545.717 632.371C544.485 634.676 545.176 637.022 547.369 638.194C548.428 638.76 549.651 639.019 550.852 638.772L550.712 637.215C549.861 637.353 548.94 637.256 548.184 636.852C547.201 636.326 546.464 635.339 546.936 633.911L552.306 636.781L552.634 636.167C553.984 633.825 553.444 631.56 551.402 630.468L551.402 630.469ZM550.662 631.852C551.645 632.377 551.998 633.356 551.532 634.59L547.751 632.569C548.436 631.65 549.528 631.245 550.662 631.852ZM588.748 655.373L592.281 648.764L590.693 647.915L588.639 651.758C588.479 650.783 587.928 649.995 586.945 649.469C584.903 648.377 582.452 649.143 581.261 651.371C580.07 653.6 580.795 656.063 582.837 657.154C583.896 657.72 584.857 657.741 585.681 657.291L585.188 658.214L586.776 659.063L588.748 655.373ZM582.925 652.261C583.623 650.954 585.03 650.323 586.392 651.051C587.677 651.738 588.05 653.222 587.311 654.605C586.613 655.912 585.13 656.503 583.844 655.815C582.524 655.011 582.227 653.567 582.925 652.261ZM529.836 623.881L531.808 620.192L530.22 619.343L529.727 620.265C529.567 619.291 529.017 618.502 528.034 617.977C525.992 616.885 523.541 617.65 522.35 619.879C521.158 622.108 521.883 624.57 523.925 625.662C524.984 626.228 525.946 626.248 526.769 625.799L526.276 626.721L527.864 627.57L529.836 623.881ZM523.938 620.728C524.636 619.421 526.043 618.79 527.404 619.518C528.69 620.205 529.063 621.689 528.324 623.073C527.626 624.379 526.143 624.97 524.857 624.283C523.537 623.478 523.239 622.034 523.938 620.728Z" fill="white"/>
<path d="M568.944 568.004L592.765 580.739L569.511 624.239L545.69 611.505L568.944 568.004Z" fill="#DDDDDD"/>
<path d="M558.829 590.563C563.554 581.725 571.828 576.069 580.817 574.351C578.176 568.196 573.544 562.855 567.192 559.459C552.142 551.414 533.352 557.279 525.176 572.573C517 587.868 522.561 606.75 537.61 614.795C543.963 618.191 550.977 619.075 557.563 617.852C553.956 609.501 554.105 599.402 558.829 590.563Z" fill="#CCCCCC"/>
<path d="M613.278 619.67C605.103 634.965 586.312 640.83 571.263 632.785C564.911 629.389 560.279 624.048 557.638 617.892C566.702 616.216 574.901 610.519 579.626 601.681C584.35 592.842 584.457 582.82 580.892 574.392C587.477 573.169 594.492 574.053 600.844 577.449C615.894 585.494 621.414 604.453 613.279 619.671L613.278 619.67Z" fill="#EEEEEE"/>
</g>
<g filter="url(#filter1_f_58_1519)">
<circle cx="296.369" cy="126.67" r="137" transform="rotate(28.1277 296.369 126.67)" fill="#00C16E" fill-opacity="0.3"/>
</g>
<g filter="url(#filter2_f_58_1519)">
<circle cx="599.148" cy="540.256" r="137" transform="rotate(28.1277 599.148 540.256)" fill="#00C16E" fill-opacity="0.5"/>
</g>
<path d="M157.309 262.09C160.355 263.718 162.289 265.52 163.112 267.494C163.946 269.448 163.818 271.444 162.729 273.481C162.036 274.777 161.09 275.78 159.892 276.488C158.693 277.196 157.29 277.518 155.684 277.454C154.079 277.389 152.339 276.856 150.467 275.855C148.924 275.03 147.547 274.017 146.338 272.814C145.139 271.592 144.255 270.325 143.685 269.015L147.05 266.805C147.5 267.893 148.177 268.929 149.079 269.914C150.013 270.89 151.076 271.696 152.27 272.334C153.69 273.093 154.955 273.399 156.065 273.252C157.207 273.095 158.053 272.502 158.603 271.474C159.197 270.362 159.201 269.292 158.613 268.264C158.056 267.226 156.719 266.14 154.599 265.007L149.383 262.219L156.78 251.052L169.467 257.834L167.668 261.198L158.377 256.232L155.241 260.985L157.309 262.09ZM170.344 286.481C168.616 285.557 167.304 284.3 166.407 282.71C165.522 281.099 165.134 279.251 165.243 277.166C165.363 275.061 166.039 272.856 167.271 270.551C168.504 268.246 169.956 266.47 171.629 265.221C173.313 263.951 175.065 263.248 176.885 263.109C178.716 262.951 180.496 263.333 182.225 264.257C183.953 265.181 185.26 266.449 186.145 268.06C187.062 269.661 187.46 271.514 187.34 273.62C187.231 275.704 186.56 277.899 185.328 280.204C184.096 282.508 182.638 284.295 180.954 285.565C179.281 286.814 177.519 287.512 175.667 287.66C173.847 287.798 172.073 287.405 170.344 286.481ZM172.209 282.993C173.752 283.818 175.307 283.829 176.874 283.027C178.462 282.235 179.932 280.573 181.285 278.042C182.638 275.511 183.203 273.366 182.979 271.606C182.776 269.857 181.903 268.57 180.36 267.745C178.837 266.931 177.282 266.92 175.695 267.712C174.128 268.515 172.668 270.182 171.315 272.713C169.962 275.244 169.387 277.384 169.59 279.132C169.813 280.892 170.686 282.179 172.209 282.993ZM197.943 284.526C199.807 285.84 200.967 287.333 201.423 289.006C201.878 290.678 201.66 292.347 200.769 294.014C200.098 295.269 199.169 296.241 197.981 296.929C196.793 297.617 195.386 297.923 193.759 297.847C192.164 297.762 190.441 297.224 188.589 296.234C187.046 295.409 185.669 294.396 184.46 293.193C183.282 291.982 182.398 290.715 181.808 289.394L185.203 287.201C185.633 288.277 186.299 289.308 187.201 290.293C188.135 291.269 189.198 292.075 190.392 292.713C191.812 293.472 193.077 293.778 194.187 293.631C195.33 293.474 196.17 292.892 196.709 291.884C197.248 290.875 197.275 289.884 196.79 288.911C196.337 287.927 195.318 287.012 193.734 286.165L191.758 285.109L193.227 282.362L201.253 279.152L191.437 273.905L193.236 270.54L207.959 278.411L206.524 281.096L197.943 284.526ZM221.813 307.288L217.986 305.242L215.362 310.149L211.473 308.07L214.096 303.163L202.244 296.826L203.729 294.048L221.819 285.82L226.11 288.114L208.966 296.055L216.035 299.833L218.361 295.481L222.127 297.494L219.801 301.846L223.628 303.892L221.813 307.288ZM238.257 322.785C236.528 321.861 235.216 320.604 234.32 319.014C233.435 317.403 233.047 315.555 233.156 313.47C233.276 311.365 233.952 309.16 235.184 306.855C236.416 304.55 237.868 302.774 239.541 301.525C241.225 300.255 242.977 299.552 244.797 299.413C246.629 299.255 248.408 299.637 250.137 300.561C251.865 301.485 253.172 302.753 254.057 304.364C254.974 305.965 255.372 307.818 255.252 309.923C255.143 312.008 254.473 314.203 253.241 316.508C252.009 318.812 250.551 320.599 248.867 321.869C247.194 323.118 245.431 323.816 243.58 323.964C241.759 324.102 239.985 323.709 238.257 322.785ZM240.121 319.297C241.664 320.122 243.22 320.133 244.786 319.33C246.374 318.539 247.844 316.877 249.197 314.346C250.55 311.815 251.115 309.67 250.892 307.91C250.689 306.161 249.816 304.874 248.272 304.049C246.75 303.235 245.195 303.224 243.607 304.016C242.04 304.819 240.58 306.486 239.227 309.017C237.874 311.548 237.299 313.688 237.502 315.436C237.725 317.196 238.598 318.483 240.121 319.297ZM269.177 310.739C272.14 312.323 273.939 314.476 274.575 317.197C275.231 319.929 274.635 323.024 272.787 326.481C271.489 328.909 269.936 330.751 268.127 332.006C266.329 333.241 264.386 333.882 262.297 333.93C260.239 333.967 258.161 333.425 256.062 332.303C254.951 331.709 253.962 331.035 253.095 330.281C252.26 329.517 251.603 328.716 251.125 327.878L254.224 325.645C254.92 326.917 256.101 327.998 257.768 328.889C259.846 330 261.813 330.231 263.668 329.583C265.523 328.934 267.094 327.406 268.381 324.998L268.397 324.967C267.363 325.367 266.248 325.498 265.051 325.361C263.866 325.204 262.655 324.795 261.421 324.135C260.001 323.376 258.868 322.426 258.022 321.286C257.188 320.126 256.721 318.871 256.622 317.521C256.523 316.172 256.825 314.839 257.53 313.522C258.278 312.123 259.282 311.085 260.543 310.41C261.814 309.714 263.201 309.397 264.702 309.459C266.204 309.521 267.695 309.947 269.177 310.739ZM263.875 321.399C265.172 322.092 266.408 322.303 267.585 322.033C268.782 321.773 269.667 321.108 270.239 320.038C270.8 318.989 270.86 317.91 270.421 316.802C270.013 315.684 269.109 314.751 267.71 314.003C266.455 313.332 265.255 313.127 264.11 313.388C262.976 313.629 262.112 314.305 261.518 315.416C260.913 316.548 260.825 317.652 261.255 318.728C261.685 319.805 262.558 320.695 263.875 321.399ZM289.615 335.238C290.471 336.357 290.962 337.519 291.085 338.723C291.241 339.917 291.005 341.101 290.378 342.274C289.674 343.591 288.687 344.545 287.418 345.137C286.17 345.739 284.734 345.951 283.111 345.771C281.498 345.57 279.807 344.997 278.037 344.051C276.268 343.105 274.852 342.017 273.789 340.788C272.758 339.549 272.147 338.243 271.954 336.87C271.762 335.497 272.018 334.152 272.722 332.835C273.349 331.662 274.192 330.803 275.251 330.258C276.321 329.692 277.549 329.449 278.935 329.529C278.323 328.593 277.985 327.619 277.918 326.604C277.884 325.58 278.136 324.564 278.675 323.556C279.324 322.342 280.22 321.458 281.362 320.905C282.525 320.362 283.846 320.169 285.324 320.324C286.802 320.479 288.333 320.98 289.918 321.827C291.523 322.685 292.8 323.685 293.75 324.828C294.7 325.971 295.273 327.177 295.468 328.445C295.663 329.714 295.436 330.955 294.787 332.169C294.248 333.177 293.539 333.936 292.658 334.444C291.778 334.952 290.763 335.217 289.615 335.238ZM288.235 324.975C286.979 324.304 285.838 324.038 284.812 324.177C283.805 324.327 283.044 324.886 282.527 325.853C282.032 326.779 281.996 327.712 282.419 328.653C282.874 329.584 283.729 330.385 284.984 331.056C286.26 331.738 287.411 332.009 288.438 331.87C289.476 331.711 290.242 331.168 290.737 330.242C291.254 329.275 291.275 328.32 290.8 327.378C290.345 326.447 289.49 325.646 288.235 324.975ZM279.721 340.902C281.202 341.694 282.54 342.013 283.734 341.857C284.929 341.702 285.817 341.079 286.4 339.989C286.972 338.918 286.991 337.844 286.457 336.764C285.923 335.685 284.915 334.749 283.433 333.957C281.952 333.165 280.624 332.853 279.45 333.019C278.276 333.185 277.404 333.803 276.832 334.873C276.249 335.964 276.214 337.044 276.728 338.112C277.241 339.18 278.239 340.11 279.721 340.902ZM317.512 336.975L316.077 339.66L297.566 354.093L293.276 351.8L311.129 337.928L302.641 333.391L300.677 337.064L296.942 335.067L300.721 327.999L317.512 336.975ZM330.813 354.84C333.858 356.468 335.792 358.269 336.615 360.244C337.449 362.198 337.322 364.194 336.233 366.231C335.54 367.527 334.594 368.53 333.395 369.238C332.196 369.946 330.794 370.268 329.188 370.204C327.582 370.139 325.843 369.606 323.97 368.605C322.427 367.78 321.05 366.766 319.841 365.564C318.643 364.342 317.759 363.075 317.189 361.765L320.553 359.555C321.004 360.643 321.68 361.679 322.582 362.664C323.516 363.639 324.579 364.446 325.773 365.084C327.193 365.843 328.458 366.149 329.569 366.002C330.711 365.845 331.557 365.252 332.107 364.223C332.701 363.112 332.704 362.042 332.116 361.014C331.56 359.976 330.222 358.89 328.102 357.757L322.886 354.968L330.284 343.802L342.97 350.584L341.171 353.948L331.881 348.982L328.744 353.735L330.813 354.84ZM354.02 356.491L342.469 378.097L338.457 375.952L348.208 357.71L343.64 355.268L345.439 351.904L354.02 356.491ZM355.603 385.515C353.875 384.591 352.563 383.334 351.667 381.744C350.781 380.133 350.393 378.285 350.502 376.2C350.623 374.095 351.299 371.89 352.531 369.585C353.763 367.281 355.215 365.504 356.888 364.255C358.572 362.986 360.324 362.282 362.144 362.144C363.975 361.985 365.755 362.367 367.484 363.291C369.212 364.215 370.519 365.483 371.404 367.094C372.321 368.695 372.719 370.548 372.599 372.654C372.49 374.739 371.819 376.933 370.587 379.238C369.355 381.543 367.897 383.33 366.213 384.599C364.541 385.848 362.778 386.546 360.926 386.694C359.106 386.832 357.332 386.439 355.603 385.515ZM357.468 382.027C359.011 382.852 360.566 382.864 362.133 382.061C363.721 381.269 365.191 379.608 366.544 377.076C367.897 374.545 368.462 372.4 368.238 370.64C368.036 368.891 367.162 367.604 365.619 366.779C364.096 365.965 362.541 365.954 360.954 366.746C359.387 367.549 357.927 369.216 356.574 371.747C355.221 374.278 354.646 376.418 354.849 378.167C355.072 379.926 355.945 381.213 357.468 382.027ZM376.372 396.618C374.644 395.694 373.331 394.436 372.435 392.846C371.55 391.235 371.162 389.387 371.271 387.303C371.391 385.197 372.067 382.992 373.299 380.688C374.531 378.383 375.984 376.606 377.657 375.357C379.341 374.088 381.093 373.384 382.913 373.246C384.744 373.087 386.524 373.47 388.252 374.394C389.981 375.318 391.288 376.585 392.173 378.196C393.089 379.797 393.488 381.651 393.368 383.756C393.259 385.841 392.588 388.036 391.356 390.34C390.124 392.645 388.666 394.432 386.982 395.701C385.309 396.95 383.547 397.648 381.695 397.796C379.875 397.935 378.101 397.542 376.372 396.618ZM378.237 393.13C379.78 393.955 381.335 393.966 382.902 393.163C384.489 392.371 385.959 390.71 387.313 388.179C388.666 385.648 389.23 383.502 389.007 381.742C388.804 379.994 387.931 378.707 386.388 377.882C384.865 377.068 383.31 377.057 381.722 377.848C380.156 378.651 378.696 380.318 377.343 382.849C375.99 385.38 375.415 387.52 375.617 389.269C375.841 391.029 376.714 392.316 378.237 393.13ZM424.671 394.259L423.235 396.944L404.725 411.377L400.434 409.084L418.288 395.212L409.799 390.675L407.836 394.348L404.101 392.351L407.879 385.283L424.671 394.259ZM435.467 421.501L431.639 419.455L429.016 424.363L425.127 422.284L427.75 417.376L415.897 411.04L417.382 408.262L435.473 400.034L439.764 402.327L422.62 410.268L429.689 414.046L432.015 409.694L435.781 411.707L433.454 416.06L437.282 418.106L435.467 421.501ZM448.28 417.635C451.325 419.263 453.26 421.064 454.083 423.039C454.917 424.993 454.789 426.988 453.7 429.025C453.007 430.322 452.061 431.324 450.862 432.033C449.663 432.741 448.261 433.063 446.655 432.998C445.049 432.934 443.31 432.401 441.438 431.4C439.894 430.575 438.518 429.561 437.308 428.359C436.11 427.136 435.226 425.87 434.656 424.56L438.02 422.35C438.471 423.438 439.147 424.474 440.049 425.459C440.983 426.434 442.047 427.241 443.24 427.879C444.66 428.638 445.925 428.944 447.036 428.797C448.178 428.64 449.024 428.047 449.574 427.018C450.168 425.907 450.171 424.837 449.583 423.809C449.027 422.77 447.689 421.685 445.57 420.552L440.353 417.763L447.751 406.597L460.437 413.379L458.639 416.743L449.348 411.777L446.212 416.529L448.28 417.635ZM468.296 429.049C470.16 430.363 471.32 431.856 471.775 433.529C472.231 435.201 472.013 436.87 471.122 438.537C470.451 439.792 469.522 440.764 468.334 441.452C467.146 442.14 465.739 442.446 464.112 442.37C462.517 442.285 460.794 441.747 458.942 440.757C457.399 439.932 456.022 438.919 454.813 437.716C453.635 436.505 452.751 435.238 452.161 433.917L455.556 431.724C455.986 432.8 456.652 433.831 457.554 434.816C458.488 435.792 459.551 436.598 460.745 437.236C462.165 437.995 463.43 438.301 464.54 438.154C465.683 437.997 466.523 437.415 467.062 436.406C467.601 435.398 467.628 434.407 467.143 433.434C466.69 432.45 465.671 431.535 464.086 430.688L462.111 429.632L463.579 426.885L471.606 423.675L461.79 418.428L463.589 415.063L478.312 422.934L476.877 425.619L468.296 429.049Z" fill="url(#paint1_linear_58_1519)"/>
<path fill-rule="evenodd" clip-rule="evenodd" d="M252.762 85.2163C247.892 82.6127 241.833 84.4504 239.229 89.3209L221.786 121.951C217.88 129.257 220.637 138.346 227.943 142.251L251.009 154.582C252.966 155.628 255.305 155.241 256.825 153.785L224.843 136.689C221.488 134.895 220.222 130.721 222.016 127.366C223.809 124.011 227.984 122.745 231.339 124.538L263.538 141.751L257.772 152.537C257.773 152.535 257.775 152.532 257.776 152.53L279.934 111.08C282.537 106.21 280.699 100.151 275.829 97.5471L252.762 85.2163Z" fill="#00C16E"/>
<path d="M265.499 103.742L272.287 103.465L275.827 109.263L269.039 109.54L265.499 103.742Z" fill="#5CD6A3"/>
<path d="M265.499 103.742L248.957 133.956L254.121 136.717L269.039 109.54L265.499 103.742Z" fill="#0E251B"/>
<path d="M275.827 109.263L259.589 139.64L254.121 136.717L269.039 109.541L275.827 109.263Z" fill="#28A46F"/>
<path d="M250.625 106.727L257.413 106.449L260.953 112.248L254.165 112.525L250.625 106.727Z" fill="#5CD6A3"/>
<path d="M250.625 106.727L238.933 128.598L244.097 131.358L254.165 112.525L250.625 106.727Z" fill="#0E251B"/>
<path d="M260.953 112.248L249.261 134.119L244.097 131.358L254.165 112.525L260.953 112.248Z" fill="#28A46F"/>
<path d="M236.074 109.104L242.862 108.826L246.402 114.625L239.615 114.902L236.074 109.104Z" fill="#5CD6A3"/>
<path d="M236.074 109.104L228.28 123.684L233.769 125.837L239.614 114.902L236.074 109.104Z" fill="#0E251B"/>
<path d="M246.402 114.625L238.933 128.598L233.769 125.837L239.614 114.902L246.402 114.625Z" fill="#28A46F"/>
<rect x="226.311" y="128.099" width="39.2667" height="4.13333" rx="2.06667" transform="rotate(28.1277 226.311 128.099)" fill="#00C16E"/>
<path d="M310.798 120.927L299.431 142.191L294.51 139.56L299.17 130.842L289.51 125.678L284.85 134.396L279.929 131.766L291.296 110.502L296.217 113.133L291.735 121.517L301.395 126.681L305.877 118.297L310.798 120.927Z" fill="#00C16E"/>
<path d="M329.085 137.03L312.431 150.429C310.675 151.912 309.034 152.741 307.509 152.915C306.004 153.1 304.472 152.775 302.913 151.942C302.062 151.487 301.292 150.906 300.603 150.199C299.913 149.492 299.43 148.765 299.152 148.018L302.686 145.571C302.877 146.09 303.157 146.565 303.526 146.997C303.914 147.439 304.341 147.784 304.807 148.033C305.455 148.38 306.068 148.499 306.646 148.392C307.214 148.304 307.854 147.983 308.568 147.427L308.71 147.308L310.434 127.06L315.324 129.674L313.984 143.214L324.528 134.595L329.085 137.03Z" fill="#00C16E"/>
<path d="M276.821 140.65L273.816 146.269L283.658 151.53L281.547 155.479L271.705 150.218L267.565 157.964L262.644 155.334L274.011 134.07L290.08 142.66L287.969 146.609L276.821 140.65Z" fill="#DDDDDD"/>
<path d="M290.15 149.025L294.889 151.558L286.152 167.901L281.414 165.367L290.15 149.025ZM293.737 148.013C292.866 147.548 292.293 146.916 292.017 146.117C291.741 145.319 291.803 144.545 292.203 143.795C292.604 143.046 293.213 142.564 294.03 142.35C294.848 142.136 295.692 142.262 296.563 142.728C297.433 143.193 298.012 143.815 298.299 144.593C298.586 145.372 298.535 146.125 298.145 146.854C297.723 147.644 297.098 148.156 296.269 148.39C295.452 148.604 294.608 148.479 293.737 148.013Z" fill="#DDDDDD"/>
<path d="M205.33 181.189C198.887 177.745 190.649 180.197 187.242 186.571L176.074 207.462C172.668 213.833 175.207 222.046 181.648 225.489L210.904 241.129C217.343 244.571 225.582 242.119 228.989 235.746L240.156 214.857C243.562 208.486 241.024 200.271 234.583 196.827L205.33 181.189ZM203.177 185.217L232.432 200.856C236.574 203.07 238.277 208.581 236.086 212.681L234.808 215.071L222.597 208.544C221.468 207.94 221.041 206.56 221.638 205.442C222.236 204.324 223.621 203.912 224.75 204.516C225.29 204.805 225.921 204.869 226.504 204.696C227.088 204.522 227.576 204.125 227.862 203.591C228.147 203.056 228.207 202.43 228.027 201.848C227.847 201.266 227.443 200.778 226.903 200.489C223.555 198.699 219.339 199.954 217.568 203.266C216.177 205.868 216.709 209.005 218.61 211.106L213.263 221.11C209.948 221.446 206.846 223.324 205.189 226.423C204.196 228.282 203.868 230.328 204.088 232.307L192.77 226.257C194.591 225.325 196.082 223.866 197.049 222.071C198.704 218.974 198.543 215.349 196.982 212.407L202.33 202.401C205.133 202.817 208.037 201.516 209.428 198.914C211.198 195.602 209.899 191.399 206.551 189.61L202.481 187.434C202.419 187.397 202.355 187.363 202.29 187.331C202.228 187.295 202.165 187.261 202.101 187.23C201.534 186.992 200.897 186.986 200.331 187.214C199.764 187.442 199.314 187.885 199.079 188.446C198.844 189.007 198.843 189.64 199.078 190.205C199.312 190.771 199.762 191.222 200.328 191.461L204.399 193.637C205.528 194.241 205.955 195.621 205.357 196.738C204.76 197.856 203.375 198.268 202.246 197.664L190.035 191.137L191.314 188.744C193.504 184.647 199.033 183.002 203.177 185.217ZM187.882 195.164L198.058 200.604L193.752 208.658L183.576 203.218L187.882 195.164ZM222.479 213.659L232.655 219.098L228.35 227.153L218.174 221.713L222.479 213.659ZM181.423 207.246L190.581 212.141C193.307 213.598 194.42 217.199 192.978 219.895C191.537 222.592 187.924 223.666 185.199 222.21L183.799 221.461C179.658 219.247 177.954 213.736 180.146 209.636L181.423 207.246ZM217.038 226.285L226.197 231.18L224.918 233.572C222.727 237.67 217.198 239.315 213.054 237.1L211.656 236.353C208.931 234.896 207.818 231.295 209.26 228.599C210.701 225.903 214.313 224.828 217.038 226.285Z" fill="#EEEEEE"/>
<path d="M707.93 381.304C707.447 380.725 707.305 379.933 707.556 379.218C707.686 378.797 707.901 378.572 709.052 377.829C713.37 375.045 716.892 371.174 719.256 366.61C721.668 362.24 722.894 357.369 722.844 352.382C722.881 351.571 722.932 350.806 723.05 350.021C723.436 349.51 723.989 349.146 724.609 349.081C725.457 349.082 726.225 349.586 726.607 350.319C726.735 351.066 726.805 351.783 726.769 352.556C726.731 356.423 726.064 360.258 724.792 363.91C723.71 366.746 722.311 369.469 720.635 372.006C718.345 375.195 715.56 377.97 712.35 380.234C710.408 381.61 709.456 382.12 708.899 381.822L707.93 381.304ZM703.267 374.643C702.557 373.961 702.483 372.828 703.114 372.071C703.208 371.895 704.094 371.331 704.944 370.729C708.456 368.325 711.211 364.969 712.874 361.048C714.104 358.253 714.722 355.226 714.708 352.182C714.772 349.839 714.87 349.515 715.837 349.013C716.866 348.639 717.992 349.109 718.455 350.148C718.68 352.268 718.606 354.417 718.266 356.536C717.171 363.1 713.639 369.002 708.379 373.056C705.664 375.169 704.32 375.602 703.306 374.569L703.267 374.643ZM698.414 367.842C698.216 367.585 698.077 367.287 698.009 366.97C697.94 366.653 697.943 366.324 698.018 366.008C698.175 365.715 698.379 365.333 699.666 364.513C701.784 363.138 703.519 361.249 704.709 359.022C705.9 356.795 706.507 354.303 706.473 351.779C706.508 349.421 706.712 349.039 707.866 348.751C708.317 348.577 708.814 348.635 709.223 348.929C710.162 349.431 710.447 350.168 710.353 352.249C710.376 355.206 709.649 358.121 708.239 360.72C706.878 363.407 704.821 365.702 702.298 367.353C700.682 368.47 700.09 368.625 699.227 368.333C698.933 368.214 698.655 368.027 698.462 367.754L698.414 367.842ZM693.909 361.416C693.55 360.922 693.38 360.322 693.464 359.707C693.592 359.115 693.974 358.753 695.063 358.128C696.329 357.523 697.34 356.479 697.926 355.207C698.695 354.015 699.016 352.602 698.846 351.191C698.801 350.691 698.792 350.188 698.82 349.687C699.153 348.677 700.24 348.126 701.346 348.491C702.217 348.768 702.594 349.403 702.731 350.91C702.925 353.05 702.489 355.2 701.476 357.096C700.463 358.991 698.917 360.548 697.03 361.575C695.678 362.305 694.647 362.188 693.923 361.424L693.909 361.416Z" fill="#EEEEEE"/>
</g>
<rect x="234.808" y="38.1991" width="636" height="406" rx="28" transform="rotate(28.1277 234.808 38.1991)" stroke="url(#paint2_linear_58_1519)" stroke-width="4"/>
</g>
<defs>
<filter id="filter0_b_58_1519" x="-9.30273" y="-14.5076" width="857.705" height="763.299" filterUnits="userSpaceOnUse" color-interpolation-filters="sRGB">
<feFlood flood-opacity="0" result="BackgroundImageFix"/>
<feGaussianBlur in="BackgroundImage" stdDeviation="25"/>
<feComposite in2="SourceAlpha" operator="in" result="effect1_backgroundBlur_58_1519"/>
<feBlend mode="normal" in="SourceGraphic" in2="effect1_backgroundBlur_58_1519" result="shape"/>
</filter>
<filter id="filter1_f_58_1519" x="-140.658" y="-310.357" width="874.054" height="874.054" filterUnits="userSpaceOnUse" color-interpolation-filters="sRGB">
<feFlood flood-opacity="0" result="BackgroundImageFix"/>
<feBlend mode="normal" in="SourceGraphic" in2="BackgroundImageFix" result="shape"/>
<feGaussianBlur stdDeviation="150" result="effect1_foregroundBlur_58_1519"/>
</filter>
<filter id="filter2_f_58_1519" x="162.121" y="103.229" width="874.054" height="874.054" filterUnits="userSpaceOnUse" color-interpolation-filters="sRGB">
<feFlood flood-opacity="0" result="BackgroundImageFix"/>
<feBlend mode="normal" in="SourceGraphic" in2="BackgroundImageFix" result="shape"/>
<feGaussianBlur stdDeviation="150" result="effect1_foregroundBlur_58_1519"/>
</filter>
<linearGradient id="paint0_linear_58_1519" x1="633.399" y1="645.878" x2="68.9832" y2="344.157" gradientUnits="userSpaceOnUse">
<stop offset="0.078125" stop-color="#258694"/>
<stop offset="1" stop-color="#00C16E"/>
</linearGradient>
<linearGradient id="paint1_linear_58_1519" x1="475.19" y1="434.872" x2="148.006" y2="259.969" gradientUnits="userSpaceOnUse">
<stop offset="0.078125" stop-color="#258694"/>
<stop offset="1" stop-color="#00C16E"/>
</linearGradient>
<linearGradient id="paint2_linear_58_1519" x1="254.987" y1="53.9924" x2="850.487" y2="425.992" gradientUnits="userSpaceOnUse">
<stop stop-color="#00C16E" stop-opacity="0.5"/>
<stop offset="1" stop-color="#1E918C" stop-opacity="0.1"/>
</linearGradient>
<clipPath id="clip0_58_1519">
<rect x="233.987" y="35.4924" width="640" height="410" rx="30" transform="rotate(28.1277 233.987 35.4924)" fill="white"/>
</clipPath>
<clipPath id="clip1_58_1519">
<rect width="100" height="79" fill="white" transform="translate(539.967 544.905) rotate(28.1277)"/>
</clipPath>
</defs>
</svg>
