<svg width="301" height="238" viewBox="0 0 301 238" fill="none" xmlns="http://www.w3.org/2000/svg">
<g opacity="0.3">
<path opacity="0.6" d="M11.4278 5.71823C11.4278 6.84914 11.0927 7.95468 10.4648 8.89501C9.83694 9.83533 8.94472 10.5682 7.90062 11.001C6.85656 11.4338 5.7077 11.547 4.59932 11.3264C3.49091 11.1058 2.4727 10.5612 1.6736 9.76144C0.874492 8.96176 0.330268 7.94282 0.109795 6.83363C-0.110678 5.72444 0.00247262 4.57475 0.434946 3.52989C0.86742 2.48505 1.5996 1.59201 2.53925 0.963697C3.4789 0.335386 4.58364 -1.97466e-07 5.71372 0C7.22917 2.65147e-07 8.68262 0.602476 9.75418 1.67483C10.8257 2.74717 11.4278 4.20168 11.4278 5.71823Z" fill="#00C16E"/>
<path opacity="0.6" d="M68.8467 5.71823C68.8467 6.84914 68.5115 7.95469 67.8838 8.89501C67.2558 9.83533 66.3636 10.5682 65.3194 11.001C64.2756 11.4338 63.1266 11.547 62.0181 11.3264C60.9099 11.1058 59.8917 10.5611 59.0924 9.76144C58.2935 8.96176 57.7491 7.94282 57.5287 6.83363C57.3083 5.72444 57.4213 4.57475 57.8539 3.52989C58.2864 2.48505 59.0188 1.59201 59.9586 0.963695C60.898 0.335386 62.0028 -1.97837e-07 63.1329 0C64.6483 2.65147e-07 66.102 0.602478 67.1733 1.67482C68.245 2.74717 68.8467 4.20169 68.8467 5.71823Z" fill="#00C16E"/>
<path opacity="0.6" d="M126.264 5.71823C126.264 6.84914 125.929 7.95469 125.301 8.89501C124.673 9.83533 123.781 10.5682 122.737 11.001C121.693 11.4338 120.544 11.547 119.436 11.3264C118.327 11.1058 117.309 10.5611 116.51 9.76144C115.711 8.96176 115.167 7.94282 114.946 6.83363C114.726 5.72444 114.839 4.57475 115.272 3.52989C115.704 2.48505 116.436 1.59201 117.376 0.963695C118.316 0.335386 119.42 -1.97837e-07 120.551 0C122.066 2.65147e-07 123.519 0.602478 124.591 1.67482C125.662 2.74717 126.264 4.20169 126.264 5.71823Z" fill="#00C16E"/>
<path opacity="0.6" d="M183.689 5.71823C183.689 6.84914 183.354 7.95469 182.726 8.89501C182.098 9.83533 181.206 10.5682 180.162 11.001C179.117 11.4338 177.968 11.547 176.86 11.3264C175.752 11.1058 174.734 10.5611 173.934 9.76144C173.135 8.96176 172.591 7.94282 172.371 6.83363C172.151 5.72444 172.264 4.57475 172.696 3.52989C173.129 2.48505 173.861 1.59201 174.801 0.963695C175.74 0.335386 176.845 -1.97837e-07 177.975 0C179.49 2.65147e-07 180.944 0.602478 182.015 1.67482C183.087 2.74717 183.689 4.20169 183.689 5.71823Z" fill="#00C16E"/>
<path opacity="0.6" d="M241.108 5.71823C241.109 6.85044 240.774 7.95751 240.147 8.89943C239.519 9.84136 238.626 10.5757 237.581 11.0097C236.536 11.4437 235.386 11.5579 234.277 11.3377C233.167 11.1175 232.147 10.5726 231.346 9.77245C230.546 8.97221 230.001 7.95253 229.78 6.84215C229.559 5.73176 229.671 4.58063 230.104 3.53449C230.537 2.48835 231.27 1.59415 232.211 0.965008C233.151 0.335869 234.258 3.01219e-07 235.389 0C236.905 -4.03484e-07 238.359 0.602304 239.431 1.6745C240.504 2.74669 241.107 4.2012 241.108 5.71823Z" fill="#00C16E"/>
<path opacity="0.6" d="M298.525 5.71823C298.525 6.84914 298.19 7.95469 297.562 8.89501C296.934 9.83533 296.042 10.5682 294.998 11.001C293.954 11.4338 292.805 11.547 291.697 11.3264C290.589 11.1058 289.57 10.5611 288.771 9.76144C287.972 8.96176 287.428 7.94282 287.207 6.83363C286.987 5.72444 287.1 4.57475 287.532 3.52989C287.965 2.48505 288.697 1.59201 289.637 0.963695C290.577 0.335386 291.681 -1.97837e-07 292.812 0C294.327 2.65147e-07 295.78 0.602478 296.852 1.67482C297.923 2.74717 298.525 4.20169 298.525 5.71823Z" fill="#00C16E"/>
<path opacity="0.6" d="M11.4278 62.3025C11.4278 63.4334 11.0927 64.539 10.4648 65.4791C9.83694 66.4196 8.94472 67.1525 7.90062 67.585C6.85656 68.0179 5.7077 68.1313 4.59932 67.9104C3.49091 67.6899 2.4727 67.1455 1.6736 66.3456C0.874492 65.546 0.330268 64.5271 0.109795 63.4178C-0.110678 62.3085 0.00247262 61.159 0.434946 60.1141C0.86742 59.0691 1.5996 58.1762 2.53925 57.5478C3.4789 56.9197 4.58364 56.5842 5.71372 56.5842C6.46411 56.5842 7.20739 56.7322 7.90062 57.0193C8.59389 57.3068 9.22361 57.7281 9.75418 58.2592C10.2848 58.7898 10.7057 59.4201 10.9929 60.1141C11.28 60.808 11.4278 61.5514 11.4278 62.3025Z" fill="#00C16E"/>
<path opacity="0.6" d="M68.8467 62.3025C68.8467 63.4334 68.5115 64.539 67.8838 65.4791C67.2558 66.4196 66.3636 67.1525 65.3194 67.585C64.2756 68.0179 63.1266 68.1313 62.0181 67.9104C60.9099 67.6899 59.8917 67.1455 59.0924 66.3456C58.2935 65.546 57.7491 64.5271 57.5287 63.4178C57.3083 62.3085 57.4213 61.159 57.8539 60.1141C58.2864 59.0691 59.0188 58.1762 59.9586 57.5478C60.898 56.9197 62.0028 56.5842 63.1329 56.5842C63.8835 56.5842 64.6264 56.7322 65.3194 57.0193C66.0128 57.3068 66.6427 57.7281 67.1733 58.2592C67.704 58.7898 68.1247 59.4201 68.4119 60.1141C68.6988 60.808 68.8467 61.5514 68.8467 62.3025Z" fill="#00C16E"/>
<path opacity="0.6" d="M126.264 62.3025C126.264 63.4334 125.929 64.539 125.301 65.4791C124.673 66.4196 123.781 67.1525 122.737 67.585C121.693 68.0179 120.544 68.1313 119.436 67.9104C118.327 67.6899 117.309 67.1455 116.51 66.3456C115.711 65.546 115.167 64.5271 114.946 63.4178C114.726 62.3085 114.839 61.159 115.272 60.1141C115.704 59.0691 116.436 58.1762 117.376 57.5478C118.316 56.9197 119.42 56.5842 120.551 56.5842C121.301 56.5842 122.044 56.7322 122.737 57.0193C123.43 57.3068 124.06 57.7281 124.591 58.2592C125.121 58.7898 125.542 59.4201 125.829 60.1141C126.116 60.808 126.264 61.5514 126.264 62.3025Z" fill="#00C16E"/>
<path opacity="0.6" d="M183.689 62.3025C183.689 63.4334 183.354 64.539 182.726 65.4791C182.098 66.4196 181.206 67.1525 180.162 67.585C179.117 68.0179 177.968 68.1313 176.86 67.9104C175.752 67.6899 174.734 67.1455 173.934 66.3456C173.135 65.546 172.591 64.5271 172.371 63.4178C172.151 62.3085 172.264 61.159 172.696 60.1141C173.129 59.0691 173.861 58.1762 174.801 57.5478C175.74 56.9197 176.845 56.5842 177.975 56.5842C178.725 56.5842 179.468 56.7322 180.162 57.0193C180.855 57.3068 181.485 57.7281 182.015 58.2592C182.546 58.7898 182.967 59.4201 183.254 60.1141C183.541 60.808 183.689 61.5514 183.689 62.3025Z" fill="#00C16E"/>
<path opacity="0.6" d="M241.108 62.3025C241.109 63.4345 240.774 64.5416 240.147 65.4836C239.519 66.4255 238.626 67.16 237.581 67.594C236.536 68.0279 235.386 68.1421 234.277 67.922C233.167 67.7018 232.147 67.157 231.346 66.3567C230.546 65.5565 230.001 64.5368 229.78 63.4264C229.559 62.3159 229.671 61.1646 230.104 60.1185C230.537 59.0724 231.27 58.1785 232.211 57.5492C233.151 56.92 234.258 56.5842 235.389 56.5842C236.905 56.5842 238.359 57.1863 239.431 58.2588C240.504 59.3309 241.107 60.7853 241.108 62.3025Z" fill="#00C16E"/>
<path opacity="0.6" d="M298.525 62.3025C298.525 63.4334 298.19 64.539 297.562 65.4791C296.934 66.4196 296.042 67.1525 294.998 67.585C293.954 68.0179 292.805 68.1313 291.697 67.9104C290.589 67.6899 289.57 67.1455 288.771 66.3456C287.972 65.546 287.428 64.5271 287.207 63.4178C286.987 62.3085 287.1 61.159 287.532 60.1141C287.965 59.0691 288.697 58.1762 289.637 57.5478C290.577 56.9197 291.681 56.5842 292.812 56.5842C293.562 56.5842 294.305 56.7322 294.998 57.0193C295.691 57.3068 296.321 57.7281 296.852 58.2592C297.383 58.7898 297.803 59.4201 298.091 60.1141C298.378 60.808 298.525 61.5514 298.525 62.3025Z" fill="#00C16E"/>
<path opacity="0.6" d="M11.4278 118.882C11.4278 120.013 11.0927 121.118 10.4648 122.059C9.83694 122.999 8.94472 123.732 7.90062 124.165C6.85656 124.597 5.7077 124.711 4.59932 124.49C3.49091 124.269 2.4727 123.725 1.6736 122.925C0.874492 122.125 0.330268 121.107 0.109795 119.997C-0.110678 118.888 0.00247262 117.739 0.434946 116.694C0.86742 115.649 1.5996 114.756 2.53925 114.127C3.4789 113.499 4.58364 113.164 5.71372 113.164C7.22872 113.165 8.68129 113.768 9.75255 114.84C10.8238 115.912 11.4264 117.366 11.4278 118.882Z" fill="#00C16E"/>
<path opacity="0.6" d="M68.8467 118.882C68.8467 120.013 68.5115 121.118 67.8838 122.059C67.2558 122.999 66.3636 123.732 65.3194 124.165C64.2756 124.597 63.1266 124.711 62.0181 124.49C60.9099 124.269 59.8917 123.725 59.0924 122.925C58.2935 122.125 57.7491 121.107 57.5287 119.997C57.3083 118.888 57.4213 117.739 57.8539 116.694C58.2864 115.649 59.0188 114.756 59.9586 114.127C60.898 113.499 62.0028 113.164 63.1329 113.164C64.6479 113.165 66.1005 113.768 67.1719 114.84C68.2432 115.912 68.8452 117.366 68.8467 118.882Z" fill="#00C16E"/>
<path opacity="0.6" d="M126.264 118.882C126.264 120.013 125.929 121.118 125.301 122.059C124.673 122.999 123.781 123.732 122.737 124.165C121.693 124.597 120.544 124.711 119.436 124.49C118.327 124.269 117.309 123.725 116.51 122.925C115.711 122.125 115.167 121.107 114.946 119.997C114.726 118.888 114.839 117.739 115.272 116.694C115.704 115.649 116.436 114.756 117.376 114.127C118.316 113.499 119.42 113.164 120.551 113.164C122.066 113.165 123.518 113.768 124.59 114.84C125.66 115.912 126.263 117.366 126.264 118.882Z" fill="#00C16E"/>
<path opacity="0.6" d="M183.689 118.882C183.689 120.013 183.354 121.118 182.726 122.059C182.098 122.999 181.206 123.732 180.162 124.165C179.117 124.597 177.968 124.711 176.86 124.49C175.752 124.269 174.734 123.725 173.934 122.925C173.135 122.125 172.591 121.107 172.371 119.997C172.151 118.888 172.264 117.739 172.696 116.694C173.129 115.649 173.861 114.756 174.801 114.127C175.74 113.499 176.845 113.164 177.975 113.164C179.49 113.165 180.942 113.768 182.014 114.84C183.085 115.912 183.687 117.366 183.689 118.882Z" fill="#00C16E"/>
<path opacity="0.6" d="M241.108 118.882C241.109 120.014 240.774 121.121 240.147 122.063C239.519 123.005 238.626 123.74 237.581 124.174C236.536 124.608 235.386 124.721 234.277 124.501C233.167 124.281 232.147 123.736 231.346 122.936C230.546 122.136 230.001 121.116 229.78 120.006C229.559 118.895 229.671 117.744 230.104 116.698C230.537 115.652 231.27 114.758 232.211 114.128C233.151 113.499 234.258 113.164 235.389 113.164C236.905 113.164 238.359 113.766 239.431 114.838C240.504 115.91 241.107 117.365 241.108 118.882Z" fill="#00C16E"/>
<path opacity="0.6" d="M298.525 118.882C298.525 120.013 298.19 121.118 297.562 122.059C296.934 122.999 296.042 123.732 294.998 124.165C293.954 124.597 292.805 124.711 291.697 124.49C290.589 124.269 289.57 123.725 288.771 122.925C287.972 122.125 287.428 121.107 287.207 119.997C286.987 118.888 287.1 117.739 287.532 116.694C287.965 115.649 288.697 114.756 289.637 114.127C290.577 113.499 291.681 113.164 292.812 113.164C294.327 113.165 295.779 113.768 296.85 114.84C297.921 115.912 298.524 117.366 298.525 118.882Z" fill="#00C16E"/>
<path opacity="0.6" d="M11.4278 175.464C11.4278 176.596 11.0927 177.701 10.4648 178.641C9.83694 179.582 8.94472 180.314 7.90062 180.747C6.85656 181.18 5.7077 181.293 4.59932 181.073C3.49091 180.852 2.4727 180.307 1.6736 179.508C0.874492 178.708 0.330268 177.689 0.109795 176.58C-0.110678 175.471 0.00247262 174.321 0.434946 173.276C0.86742 172.232 1.5996 171.338 2.53925 170.71C3.4789 170.082 4.58364 169.746 5.71372 169.746C7.22917 169.746 8.68262 170.349 9.75418 171.421C10.8257 172.494 11.4278 173.948 11.4278 175.464Z" fill="#00C16E"/>
<path opacity="0.6" d="M68.8467 175.464C68.8467 176.596 68.5115 177.701 67.8838 178.641C67.2558 179.582 66.3636 180.314 65.3194 180.747C64.2756 181.18 63.1266 181.293 62.0181 181.073C60.9099 180.852 59.8917 180.307 59.0924 179.508C58.2935 178.708 57.7491 177.689 57.5287 176.58C57.3083 175.471 57.4213 174.321 57.8539 173.276C58.2864 172.232 59.0188 171.338 59.9586 170.71C60.898 170.082 62.0028 169.746 63.1329 169.746C64.6483 169.746 66.102 170.349 67.1733 171.421C68.245 172.494 68.8467 173.948 68.8467 175.464Z" fill="#00C16E"/>
<path opacity="0.6" d="M126.264 175.464C126.264 176.596 125.929 177.701 125.301 178.641C124.673 179.582 123.781 180.314 122.737 180.747C121.693 181.18 120.544 181.293 119.436 181.073C118.327 180.852 117.309 180.307 116.51 179.508C115.711 178.708 115.167 177.689 114.946 176.58C114.726 175.471 114.839 174.321 115.272 173.276C115.704 172.232 116.436 171.338 117.376 170.71C118.316 170.082 119.42 169.746 120.551 169.746C122.066 169.746 123.519 170.349 124.591 171.421C125.662 172.494 126.264 173.948 126.264 175.464Z" fill="#00C16E"/>
<path opacity="0.6" d="M183.689 175.464C183.689 176.596 183.354 177.701 182.726 178.641C182.098 179.582 181.206 180.314 180.162 180.747C179.117 181.18 177.968 181.293 176.86 181.073C175.752 180.852 174.734 180.307 173.934 179.508C173.135 178.708 172.591 177.689 172.371 176.58C172.151 175.471 172.264 174.321 172.696 173.276C173.129 172.232 173.861 171.338 174.801 170.71C175.74 170.082 176.845 169.746 177.975 169.746C179.49 169.746 180.944 170.349 182.015 171.421C183.087 172.494 183.689 173.948 183.689 175.464Z" fill="#00C16E"/>
<path opacity="0.6" d="M241.108 175.464C241.109 176.597 240.774 177.704 240.147 178.646C239.519 179.588 238.626 180.322 237.581 180.756C236.536 181.19 235.386 181.304 234.277 181.084C233.167 180.864 232.147 180.319 231.346 179.519C230.546 178.719 230.001 177.699 229.78 176.588C229.559 175.478 229.671 174.327 230.104 173.281C230.537 172.235 231.27 171.341 232.211 170.711C233.151 170.082 234.258 169.746 235.389 169.746C236.905 169.746 238.359 170.349 239.431 171.421C240.504 172.493 241.107 173.947 241.108 175.464Z" fill="#00C16E"/>
<path opacity="0.6" d="M298.525 175.464C298.525 176.596 298.19 177.701 297.562 178.641C296.934 179.582 296.042 180.314 294.998 180.747C293.954 181.18 292.805 181.293 291.697 181.073C290.589 180.852 289.57 180.307 288.771 179.508C287.972 178.708 287.428 177.689 287.207 176.58C286.987 175.471 287.1 174.321 287.532 173.276C287.965 172.232 288.697 171.338 289.637 170.71C290.577 170.082 291.681 169.746 292.812 169.746C294.327 169.746 295.78 170.349 296.852 171.421C297.923 172.494 298.525 173.948 298.525 175.464Z" fill="#00C16E"/>
<path opacity="0.6" d="M11.4278 232.052C11.4278 233.182 11.0927 234.288 10.4648 235.228C9.83694 236.169 8.94472 236.901 7.90062 237.334C6.85656 237.767 5.7077 237.88 4.59932 237.659C3.49091 237.439 2.4727 236.894 1.6736 236.095C0.874492 235.295 0.330268 234.276 0.109795 233.167C-0.110678 232.058 0.00247262 230.908 0.434946 229.863C0.86742 228.818 1.5996 227.925 2.53925 227.297C3.4789 226.669 4.58364 226.333 5.71372 226.333C7.22917 226.333 8.68262 226.936 9.75418 228.008C10.8257 229.081 11.4278 230.535 11.4278 232.052Z" fill="#00C16E"/>
<path opacity="0.6" d="M68.8467 232.052C68.8467 233.182 68.5115 234.288 67.8838 235.228C67.2558 236.169 66.3636 236.901 65.3194 237.334C64.2756 237.767 63.1266 237.88 62.0181 237.659C60.9099 237.439 59.8917 236.894 59.0924 236.095C58.2935 235.295 57.7491 234.276 57.5287 233.167C57.3083 232.058 57.4213 230.908 57.8539 229.863C58.2864 228.818 59.0188 227.925 59.9586 227.297C60.898 226.669 62.0028 226.333 63.1329 226.333C64.6483 226.333 66.102 226.936 67.1733 228.008C68.245 229.081 68.8467 230.535 68.8467 232.052Z" fill="#00C16E"/>
<path opacity="0.6" d="M126.264 232.051C126.264 233.182 125.929 234.287 125.301 235.228C124.673 236.168 123.781 236.901 122.737 237.334C121.693 237.766 120.544 237.88 119.436 237.659C118.327 237.438 117.309 236.894 116.51 236.094C115.711 235.294 115.167 234.275 114.946 233.166C114.726 232.057 114.839 230.907 115.272 229.862C115.704 228.818 116.436 227.925 117.376 227.296C118.316 226.668 119.42 226.333 120.551 226.333C122.066 226.333 123.519 226.935 124.591 228.007C125.662 229.08 126.264 230.534 126.264 232.051Z" fill="#00C16E"/>
<path opacity="0.6" d="M183.689 232.052C183.689 233.182 183.354 234.288 182.726 235.228C182.098 236.169 181.206 236.901 180.162 237.334C179.117 237.767 177.968 237.88 176.86 237.659C175.752 237.439 174.734 236.894 173.934 236.095C173.135 235.295 172.591 234.276 172.371 233.167C172.151 232.058 172.264 230.908 172.696 229.863C173.129 228.818 173.861 227.925 174.801 227.297C175.74 226.669 176.845 226.333 177.975 226.333C179.49 226.333 180.944 226.936 182.015 228.008C183.087 229.081 183.689 230.535 183.689 232.052Z" fill="#00C16E"/>
<path opacity="0.6" d="M241.108 232.052C241.109 233.184 240.774 234.291 240.147 235.233C239.519 236.175 238.626 236.909 237.581 237.343C236.536 237.777 235.386 237.891 234.277 237.671C233.167 237.451 232.147 236.906 231.346 236.106C230.546 235.305 230.001 234.286 229.78 233.175C229.559 232.065 229.671 230.914 230.104 229.868C230.537 228.821 231.27 227.927 232.211 227.298C233.151 226.669 234.258 226.333 235.389 226.333C236.905 226.333 238.359 226.936 239.431 228.008C240.504 229.08 241.107 230.535 241.108 232.052Z" fill="#00C16E"/>
<path opacity="0.6" d="M298.525 232.052C298.525 233.182 298.19 234.288 297.562 235.228C296.934 236.169 296.042 236.901 294.998 237.334C293.954 237.767 292.805 237.88 291.697 237.659C290.589 237.439 289.57 236.894 288.771 236.095C287.972 235.295 287.428 234.276 287.207 233.167C286.987 232.058 287.1 230.908 287.532 229.863C287.965 228.818 288.697 227.925 289.637 227.297C290.577 226.669 291.681 226.333 292.812 226.333C294.327 226.333 295.78 226.936 296.852 228.008C297.923 229.081 298.525 230.535 298.525 232.052Z" fill="#00C16E"/>
</g>
</svg>
