<svg width="47" height="62" viewBox="0 0 47 62" fill="none" xmlns="http://www.w3.org/2000/svg">
<path fill-rule="evenodd" clip-rule="evenodd" d="M10 0C4.47715 0 0 4.47715 0 10V47C0 55.2843 6.71574 62 15 62H41.1556C43.3739 62 45.2548 60.5554 45.9088 58.5556H9.64443C5.83981 58.5556 2.75555 55.4714 2.75555 51.6667C2.75555 47.8621 5.83981 44.7778 9.64444 44.7778H46.1555V57.0088C46.1555 57.0059 46.1556 57.0029 46.1556 57V10C46.1556 4.47715 41.6784 0 36.1555 0H10Z" fill="#00C16E"/>
<path d="M29.9665 10.3332L35.822 6.88879L41.6776 10.3332L35.822 13.7777L29.9665 10.3332Z" fill="#5CD6A3"/>
<path d="M29.9665 10.3334L29.6221 44.7778H35.4777L35.8221 13.7778L29.9665 10.3334Z" fill="#0E251B"/>
<path d="M41.6776 10.3334V44.7778H35.4776L35.822 13.7778L41.6776 10.3334Z" fill="#28A46F"/>
<path d="M18.2556 19.9776L24.1111 16.5332L29.9667 19.9776L24.1111 23.4221L18.2556 19.9776Z" fill="#5CD6A3"/>
<path d="M18.2556 19.9778V44.7778H24.1112V23.4222L18.2556 19.9778Z" fill="#0E251B"/>
<path d="M29.9666 19.9778V44.7778H24.111V23.4222L29.9666 19.9778Z" fill="#28A46F"/>
<path d="M6.54442 28.9335L12.4 25.489L18.2555 28.9335L12.4 32.3779L6.54442 28.9335Z" fill="#5CD6A3"/>
<path d="M6.5444 28.9333V45.4667L12.4 44.7778L12.4 32.3778L6.5444 28.9333Z" fill="#0E251B"/>
<path d="M18.2555 28.9333V44.7778H12.4L12.4 32.3778L18.2555 28.9333Z" fill="#28A46F"/>
<rect x="6.88878" y="50.2888" width="39.2667" height="4.13333" rx="2.06667" fill="#00C16E"/>
</svg>
