<svg width="102" height="62" viewBox="0 0 102 62" fill="none" xmlns="http://www.w3.org/2000/svg">
<path fill-rule="evenodd" clip-rule="evenodd" d="M10 0C4.47715 0 0 4.47715 0 10V47C0 55.2843 6.71574 62 15 62H41.1556C43.3739 62 45.2548 60.5554 45.9088 58.5556H9.64443C5.83981 58.5556 2.75555 55.4714 2.75555 51.6667C2.75555 47.8621 5.83981 44.7778 9.64444 44.7778H46.1555V57.0088C46.1555 57.0059 46.1556 57.0029 46.1556 57V10C46.1556 4.47715 41.6784 0 36.1555 0H10Z" fill="#00C16E"/>
<path d="M29.9664 10.3334L35.822 6.88892L41.6775 10.3334L35.822 13.7778L29.9664 10.3334Z" fill="#5CD6A3"/>
<path d="M29.9665 10.3335L29.6221 44.7779H35.4776L35.8221 13.7779L29.9665 10.3335Z" fill="#0E251B"/>
<path d="M41.6776 10.3335V44.7779H35.4776L35.822 13.7779L41.6776 10.3335Z" fill="#28A46F"/>
<path d="M18.2556 19.9776L24.1111 16.5332L29.9667 19.9776L24.1111 23.4221L18.2556 19.9776Z" fill="#5CD6A3"/>
<path d="M18.2556 19.9778V44.7778H24.1112V23.4222L18.2556 19.9778Z" fill="#0E251B"/>
<path d="M29.9666 19.9778V44.7778H24.111V23.4222L29.9666 19.9778Z" fill="#28A46F"/>
<path d="M6.5444 28.9335L12.4 25.489L18.2555 28.9335L12.4 32.3779L6.5444 28.9335Z" fill="#5CD6A3"/>
<path d="M6.54437 28.9333V45.4667L12.3999 44.7778L12.3999 32.3778L6.54437 28.9333Z" fill="#0E251B"/>
<path d="M18.2555 28.9333V44.7778H12.4L12.4 32.3778L18.2555 28.9333Z" fill="#28A46F"/>
<rect x="6.88876" y="50.2888" width="39.2667" height="4.13333" rx="2.06667" fill="#00C16E"/>
<path d="M78.0167 4.1333V28.2444H72.4367V18.3589H61.4833V28.2444H55.9033V4.1333H61.4833V13.64H72.4367V4.1333H78.0167Z" fill="#00C16E"/>
<path d="M101.736 9.7133L93.3657 29.3811C92.5161 31.5166 91.4598 33.0207 90.1968 33.8933C88.9568 34.7659 87.4527 35.2022 85.6846 35.2022C84.7201 35.2022 83.7672 35.0529 82.8257 34.7544C81.8842 34.4559 81.1149 34.0426 80.5179 33.5144L82.4812 29.6911C82.8946 30.0585 83.3653 30.3455 83.8935 30.5522C84.4446 30.7589 84.9842 30.8622 85.5124 30.8622C86.2472 30.8622 86.8442 30.6785 87.3035 30.3111C87.7627 29.9666 88.1761 29.3811 88.5435 28.5544L88.6124 28.3822L80.5868 9.7133H86.1324L91.3335 22.2855L96.569 9.7133H101.736Z" fill="#00C16E"/>
<path d="M57.3501 37.5445V43.9167H68.5101V48.3945H57.3501V57.1778H51.7701V33.0667H69.9912V37.5445H57.3501Z" fill="#DDDDDD"/>
<path d="M73.0535 38.6467H78.4269V57.1778H73.0535V38.6467ZM75.7402 36.0634C74.7528 36.0634 73.9491 35.7764 73.3291 35.2023C72.7091 34.6282 72.3991 33.9164 72.3991 33.0667C72.3991 32.2171 72.7091 31.5053 73.3291 30.9312C73.9491 30.3571 74.7528 30.0701 75.7402 30.0701C76.7276 30.0701 77.5313 30.3456 78.1513 30.8967C78.7713 31.4478 79.0813 32.1367 79.0813 32.9634C79.0813 33.859 78.7713 34.6053 78.1513 35.2023C77.5313 35.7764 76.7276 36.0634 75.7402 36.0634Z" fill="#DDDDDD"/>
</svg>
