<svg width="148" height="90" viewBox="0 0 148 90" fill="none" xmlns="http://www.w3.org/2000/svg">
<path fill-rule="evenodd" clip-rule="evenodd" d="M10 0C4.47715 0 0 4.47715 0 10V75C0 83.2843 6.71573 90 15 90H62C64.7614 90 67 87.7614 67 85H14C8.47715 85 4 80.5229 4 75C4 69.4771 8.47715 65 14 65H67V10C67 4.47715 62.5228 0 57 0H10Z" fill="#00C16E"/>
<path d="M43.5 15L52 10L60.5 15L52 20L43.5 15Z" fill="#BFEFDB"/>
<path d="M43.5 15L43 65H51.5L52 20L43.5 15Z" fill="#DAE1E6"/>
<path d="M60.5 15V65H51.5L52 20L60.5 15Z" fill="#80E0B7"/>
<path d="M26.5 29L35 24L43.5 29L35 34L26.5 29Z" fill="#BFEFDB"/>
<path d="M26.5 29V65H35V34L26.5 29Z" fill="#DAE1E6"/>
<path d="M43.5 29V65H35V34L43.5 29Z" fill="#80E0B7"/>
<path d="M9.5 42L18 37L26.5 42L18 47L9.5 42Z" fill="#BFEFDB"/>
<path d="M9.5 42V66L18 65L18 47L9.5 42Z" fill="#DAE1E6"/>
<path d="M26.5 42V65H18L18 47L26.5 42Z" fill="#80E0B7"/>
<rect x="10" y="73" width="57" height="6" rx="3" fill="#00C16E"/>
<path d="M113.25 6V41H105.15V26.65H89.25V41H81.15V6H89.25V19.8H105.15V6H113.25Z" fill="#00C16E"/>
<path d="M147.681 14.1L135.531 42.65C134.298 45.75 132.764 47.9333 130.931 49.2C129.131 50.4667 126.948 51.1 124.381 51.1C122.981 51.1 121.598 50.8833 120.231 50.45C118.864 50.0167 117.748 49.4167 116.881 48.65L119.731 43.1C120.331 43.6333 121.014 44.05 121.781 44.35C122.581 44.65 123.364 44.8 124.131 44.8C125.198 44.8 126.064 44.5333 126.731 44C127.398 43.5 127.998 42.65 128.531 41.45L128.631 41.2L116.981 14.1H125.031L132.581 32.35L140.181 14.1H147.681Z" fill="#00C16E"/>
<path d="M83.25 54.5V63.75H99.45V70.25H83.25V83H75.15V48H101.6V54.5H83.25Z" fill="#474747"/>
<path d="M106.045 56.1H113.845V83H106.045V56.1ZM109.945 52.35C108.512 52.35 107.345 51.9334 106.445 51.1C105.545 50.2667 105.095 49.2334 105.095 48C105.095 46.7667 105.545 45.7334 106.445 44.9C107.345 44.0667 108.512 43.65 109.945 43.65C111.379 43.65 112.545 44.05 113.445 44.85C114.345 45.65 114.795 46.65 114.795 47.85C114.795 49.15 114.345 50.2334 113.445 51.1C112.545 51.9334 111.379 52.35 109.945 52.35Z" fill="#474747"/>
</svg>
