<svg width="870" height="744" viewBox="0 0 870 744" fill="none" xmlns="http://www.w3.org/2000/svg">
<circle cx="700.5" cy="650.5" r="93.5" fill="#2CAABB"/>
<path d="M669 78C669 49.2812 692.281 26 721 26H786C791.523 26 796 30.4772 796 36V120C796 125.523 791.523 130 786 130H721C692.281 130 669 106.719 669 78Z" fill="#00C16E"/>
<path d="M145.73 354.199C144.324 342.738 155.852 334.052 166.48 338.565L403.234 439.085C413.863 443.598 415.621 457.924 406.398 464.873L200.968 619.648C191.746 626.596 178.46 620.955 177.054 609.494L145.73 354.199Z" fill="#00C16E"/>
<path d="M402 122C404.761 122 407.011 119.76 406.898 117C405.646 86.4614 392.965 57.4313 371.267 35.733C348.388 12.8535 317.356 2.44284e-06 285 0C252.644 -2.44284e-06 221.612 12.8535 198.733 35.733C177.035 57.4313 164.354 86.4614 163.102 117C162.989 119.76 165.239 122 168 122L285 122H402Z" fill="#64D67D"/>
<g filter="url(#filter0_b_57_1321)">
<g clip-path="url(#clip0_57_1321)">
<rect x="733" y="56" width="640" height="508" rx="30" transform="rotate(90 733 56)" fill="black" fill-opacity="0.2"/>
<g filter="url(#filter1_f_57_1321)">
<circle cx="682" cy="154" r="137" transform="rotate(90 682 154)" fill="#00C16E" fill-opacity="0.3"/>
</g>
<g filter="url(#filter2_f_57_1321)">
<circle cx="460" cy="616" r="137" transform="rotate(90 460 616)" fill="#00C16E" fill-opacity="0.5"/>
</g>
</g>
<rect x="731" y="58" width="636" height="504" rx="28" transform="rotate(90 731 58)" stroke="url(#paint0_linear_57_1321)" stroke-width="4"/>
</g>
<rect x="370" y="271" width="500" height="200" rx="20" fill="#00C16E"/>
<path d="M415.65 349.6C412.883 349.6 410.2 349.233 407.6 348.5C405.033 347.733 402.967 346.75 401.4 345.55L404.15 339.45C405.65 340.55 407.433 341.433 409.5 342.1C411.567 342.767 413.633 343.1 415.7 343.1C418 343.1 419.7 342.767 420.8 342.1C421.9 341.4 422.45 340.483 422.45 339.35C422.45 338.517 422.117 337.833 421.45 337.3C420.817 336.733 419.983 336.283 418.95 335.95C417.95 335.617 416.583 335.25 414.85 334.85C412.183 334.217 410 333.583 408.3 332.95C406.6 332.317 405.133 331.3 403.9 329.9C402.7 328.5 402.1 326.633 402.1 324.3C402.1 322.267 402.65 320.433 403.75 318.8C404.85 317.133 406.5 315.817 408.7 314.85C410.933 313.883 413.65 313.4 416.85 313.4C419.083 313.4 421.267 313.667 423.4 314.2C425.533 314.733 427.4 315.5 429 316.5L426.5 322.65C423.267 320.817 420.033 319.9 416.8 319.9C414.533 319.9 412.85 320.267 411.75 321C410.683 321.733 410.15 322.7 410.15 323.9C410.15 325.1 410.767 326 412 326.6C413.267 327.167 415.183 327.733 417.75 328.3C420.417 328.933 422.6 329.567 424.3 330.2C426 330.833 427.45 331.833 428.65 333.2C429.883 334.567 430.5 336.417 430.5 338.75C430.5 340.75 429.933 342.583 428.8 344.25C427.7 345.883 426.033 347.183 423.8 348.15C421.567 349.117 418.85 349.6 415.65 349.6ZM451.385 321.7C453.885 321.7 456.151 322.283 458.185 323.45C460.251 324.583 461.868 326.2 463.035 328.3C464.201 330.367 464.785 332.783 464.785 335.55C464.785 338.317 464.201 340.75 463.035 342.85C461.868 344.917 460.251 346.533 458.185 347.7C456.151 348.833 453.885 349.4 451.385 349.4C447.951 349.4 445.251 348.317 443.285 346.15V358.7H435.485V322.1H442.935V325.2C444.868 322.867 447.685 321.7 451.385 321.7ZM450.035 343C452.035 343 453.668 342.333 454.935 341C456.235 339.633 456.885 337.817 456.885 335.55C456.885 333.283 456.235 331.483 454.935 330.15C453.668 328.783 452.035 328.1 450.035 328.1C448.035 328.1 446.385 328.783 445.085 330.15C443.818 331.483 443.185 333.283 443.185 335.55C443.185 337.817 443.818 339.633 445.085 341C446.385 342.333 448.035 343 450.035 343ZM496.356 335.65C496.356 335.75 496.306 336.45 496.206 337.75H475.856C476.223 339.417 477.09 340.733 478.456 341.7C479.823 342.667 481.523 343.15 483.556 343.15C484.956 343.15 486.19 342.95 487.256 342.55C488.356 342.117 489.373 341.45 490.306 340.55L494.456 345.05C491.923 347.95 488.223 349.4 483.356 349.4C480.323 349.4 477.64 348.817 475.306 347.65C472.973 346.45 471.173 344.8 469.906 342.7C468.64 340.6 468.006 338.217 468.006 335.55C468.006 332.917 468.623 330.55 469.856 328.45C471.123 326.317 472.84 324.667 475.006 323.5C477.206 322.3 479.656 321.7 482.356 321.7C484.99 321.7 487.373 322.267 489.506 323.4C491.64 324.533 493.306 326.167 494.506 328.3C495.74 330.4 496.356 332.85 496.356 335.65ZM482.406 327.6C480.64 327.6 479.156 328.1 477.956 329.1C476.756 330.1 476.023 331.467 475.756 333.2H489.006C488.74 331.5 488.006 330.15 486.806 329.15C485.606 328.117 484.14 327.6 482.406 327.6ZM517.899 321.7C521.233 321.7 523.916 322.7 525.949 324.7C528.016 326.7 529.049 329.667 529.049 333.6V349H521.249V334.8C521.249 332.667 520.783 331.083 519.849 330.05C518.916 328.983 517.566 328.45 515.799 328.45C513.833 328.45 512.266 329.067 511.099 330.3C509.933 331.5 509.349 333.3 509.349 335.7V349H501.549V322.1H508.999V325.25C510.033 324.117 511.316 323.25 512.849 322.65C514.383 322.017 516.066 321.7 517.899 321.7ZM563.813 311.9V349H556.363V345.9C554.429 348.233 551.629 349.4 547.963 349.4C545.429 349.4 543.129 348.833 541.063 347.7C539.029 346.567 537.429 344.95 536.263 342.85C535.096 340.75 534.513 338.317 534.513 335.55C534.513 332.783 535.096 330.35 536.263 328.25C537.429 326.15 539.029 324.533 541.063 323.4C543.129 322.267 545.429 321.7 547.963 321.7C551.396 321.7 554.079 322.783 556.013 324.95V311.9H563.813ZM549.313 343C551.279 343 552.913 342.333 554.213 341C555.513 339.633 556.163 337.817 556.163 335.55C556.163 333.283 555.513 331.483 554.213 330.15C552.913 328.783 551.279 328.1 549.313 328.1C547.313 328.1 545.663 328.783 544.363 330.15C543.063 331.483 542.413 333.283 542.413 335.55C542.413 337.817 543.063 339.633 544.363 341C545.663 342.333 547.313 343 549.313 343ZM594.242 349.4C592.008 349.4 589.825 349.133 587.692 348.6C585.558 348.033 583.858 347.333 582.592 346.5L585.192 340.9C586.392 341.667 587.842 342.3 589.542 342.8C591.242 343.267 592.908 343.5 594.542 343.5C597.842 343.5 599.492 342.683 599.492 341.05C599.492 340.283 599.042 339.733 598.142 339.4C597.242 339.067 595.858 338.783 593.992 338.55C591.792 338.217 589.975 337.833 588.542 337.4C587.108 336.967 585.858 336.2 584.792 335.1C583.758 334 583.242 332.433 583.242 330.4C583.242 328.7 583.725 327.2 584.692 325.9C585.692 324.567 587.125 323.533 588.992 322.8C590.892 322.067 593.125 321.7 595.692 321.7C597.592 321.7 599.475 321.917 601.342 322.35C603.242 322.75 604.808 323.317 606.042 324.05L603.442 329.6C601.075 328.267 598.492 327.6 595.692 327.6C594.025 327.6 592.775 327.833 591.942 328.3C591.108 328.767 590.692 329.367 590.692 330.1C590.692 330.933 591.142 331.517 592.042 331.85C592.942 332.183 594.375 332.5 596.342 332.8C598.542 333.167 600.342 333.567 601.742 334C603.142 334.4 604.358 335.15 605.392 336.25C606.425 337.35 606.942 338.883 606.942 340.85C606.942 342.517 606.442 344 605.442 345.3C604.442 346.6 602.975 347.617 601.042 348.35C599.142 349.05 596.875 349.4 594.242 349.4ZM646.204 321.7C649.571 321.7 652.238 322.7 654.204 324.7C656.204 326.667 657.204 329.633 657.204 333.6V349H649.404V334.8C649.404 332.667 648.954 331.083 648.054 330.05C647.188 328.983 645.938 328.45 644.304 328.45C642.471 328.45 641.021 329.05 639.954 330.25C638.888 331.417 638.354 333.167 638.354 335.5V349H630.554V334.8C630.554 330.567 628.854 328.45 625.454 328.45C623.654 328.45 622.221 329.05 621.154 330.25C620.088 331.417 619.554 333.167 619.554 335.5V349H611.754V322.1H619.204V325.2C620.204 324.067 621.421 323.2 622.854 322.6C624.321 322 625.921 321.7 627.654 321.7C629.554 321.7 631.271 322.083 632.804 322.85C634.338 323.583 635.571 324.667 636.504 326.1C637.604 324.7 638.988 323.617 640.654 322.85C642.354 322.083 644.204 321.7 646.204 321.7ZM675.046 321.7C679.212 321.7 682.412 322.7 684.646 324.7C686.879 326.667 687.996 329.65 687.996 333.65V349H680.696V345.65C679.229 348.15 676.496 349.4 672.496 349.4C670.429 349.4 668.629 349.05 667.096 348.35C665.596 347.65 664.446 346.683 663.646 345.45C662.846 344.217 662.446 342.817 662.446 341.25C662.446 338.75 663.379 336.783 665.246 335.35C667.146 333.917 670.062 333.2 673.996 333.2H680.196C680.196 331.5 679.679 330.2 678.646 329.3C677.612 328.367 676.062 327.9 673.996 327.9C672.562 327.9 671.146 328.133 669.746 328.6C668.379 329.033 667.212 329.633 666.246 330.4L663.446 324.95C664.912 323.917 666.662 323.117 668.696 322.55C670.762 321.983 672.879 321.7 675.046 321.7ZM674.446 344.15C675.779 344.15 676.962 343.85 677.996 343.25C679.029 342.617 679.762 341.7 680.196 340.5V337.75H674.846C671.646 337.75 670.046 338.8 670.046 340.9C670.046 341.9 670.429 342.7 671.196 343.3C671.996 343.867 673.079 344.15 674.446 344.15ZM702.505 325.65C703.438 324.35 704.688 323.367 706.255 322.7C707.855 322.033 709.688 321.7 711.755 321.7V328.9C710.888 328.833 710.305 328.8 710.005 328.8C707.772 328.8 706.022 329.433 704.755 330.7C703.488 331.933 702.855 333.8 702.855 336.3V349H695.055V322.1H702.505V325.65ZM734.671 347.7C733.904 348.267 732.954 348.7 731.821 349C730.721 349.267 729.554 349.4 728.321 349.4C725.121 349.4 722.637 348.583 720.871 346.95C719.137 345.317 718.271 342.917 718.271 339.75V328.7H714.121V322.7H718.271V316.15H726.071V322.7H732.771V328.7H726.071V339.65C726.071 340.783 726.354 341.667 726.921 342.3C727.521 342.9 728.354 343.2 729.421 343.2C730.654 343.2 731.704 342.867 732.571 342.2L734.671 347.7ZM742.488 349.4C741.121 349.4 739.971 348.933 739.038 348C738.104 347.067 737.638 345.9 737.638 344.5C737.638 343.067 738.104 341.917 739.038 341.05C739.971 340.15 741.121 339.7 742.488 339.7C743.854 339.7 745.004 340.15 745.938 341.05C746.871 341.917 747.338 343.067 747.338 344.5C747.338 345.9 746.871 347.067 745.938 348C745.004 348.933 743.854 349.4 742.488 349.4Z" fill="white"/>
<path d="M415.65 420.6C412.883 420.6 410.2 420.233 407.6 419.5C405.033 418.733 402.967 417.75 401.4 416.55L404.15 410.45C405.65 411.55 407.433 412.433 409.5 413.1C411.567 413.767 413.633 414.1 415.7 414.1C418 414.1 419.7 413.767 420.8 413.1C421.9 412.4 422.45 411.483 422.45 410.35C422.45 409.517 422.117 408.833 421.45 408.3C420.817 407.733 419.983 407.283 418.95 406.95C417.95 406.617 416.583 406.25 414.85 405.85C412.183 405.217 410 404.583 408.3 403.95C406.6 403.317 405.133 402.3 403.9 400.9C402.7 399.5 402.1 397.633 402.1 395.3C402.1 393.267 402.65 391.433 403.75 389.8C404.85 388.133 406.5 386.817 408.7 385.85C410.933 384.883 413.65 384.4 416.85 384.4C419.083 384.4 421.267 384.667 423.4 385.2C425.533 385.733 427.4 386.5 429 387.5L426.5 393.65C423.267 391.817 420.033 390.9 416.8 390.9C414.533 390.9 412.85 391.267 411.75 392C410.683 392.733 410.15 393.7 410.15 394.9C410.15 396.1 410.767 397 412 397.6C413.267 398.167 415.183 398.733 417.75 399.3C420.417 399.933 422.6 400.567 424.3 401.2C426 401.833 427.45 402.833 428.65 404.2C429.883 405.567 430.5 407.417 430.5 409.75C430.5 411.75 429.933 413.583 428.8 415.25C427.7 416.883 426.033 418.183 423.8 419.15C421.567 420.117 418.85 420.6 415.65 420.6ZM446.335 392.7C450.501 392.7 453.701 393.7 455.935 395.7C458.168 397.667 459.285 400.65 459.285 404.65V420H451.985V416.65C450.518 419.15 447.785 420.4 443.785 420.4C441.718 420.4 439.918 420.05 438.385 419.35C436.885 418.65 435.735 417.683 434.935 416.45C434.135 415.217 433.735 413.817 433.735 412.25C433.735 409.75 434.668 407.783 436.535 406.35C438.435 404.917 441.351 404.2 445.285 404.2H451.485C451.485 402.5 450.968 401.2 449.935 400.3C448.901 399.367 447.351 398.9 445.285 398.9C443.851 398.9 442.435 399.133 441.035 399.6C439.668 400.033 438.501 400.633 437.535 401.4L434.735 395.95C436.201 394.917 437.951 394.117 439.985 393.55C442.051 392.983 444.168 392.7 446.335 392.7ZM445.735 415.15C447.068 415.15 448.251 414.85 449.285 414.25C450.318 413.617 451.051 412.7 451.485 411.5V408.75H446.135C442.935 408.75 441.335 409.8 441.335 411.9C441.335 412.9 441.718 413.7 442.485 414.3C443.285 414.867 444.368 415.15 445.735 415.15ZM492.556 393.1L480.406 421.65C479.173 424.75 477.639 426.933 475.806 428.2C474.006 429.467 471.823 430.1 469.256 430.1C467.856 430.1 466.473 429.883 465.106 429.45C463.739 429.017 462.623 428.417 461.756 427.65L464.606 422.1C465.206 422.633 465.889 423.05 466.656 423.35C467.456 423.65 468.239 423.8 469.006 423.8C470.073 423.8 470.939 423.533 471.606 423C472.273 422.5 472.873 421.65 473.406 420.45L473.506 420.2L461.856 393.1H469.906L477.456 411.35L485.056 393.1H492.556Z" fill="white"/>
<path d="M542.549 385V420H534.449V405.65H518.549V420H510.449V385H518.549V398.8H534.449V385H542.549ZM576.98 393.1L564.83 421.65C563.596 424.75 562.063 426.933 560.23 428.2C558.43 429.467 556.246 430.1 553.68 430.1C552.28 430.1 550.896 429.883 549.53 429.45C548.163 429.017 547.046 428.417 546.18 427.65L549.03 422.1C549.63 422.633 550.313 423.05 551.08 423.35C551.88 423.65 552.663 423.8 553.43 423.8C554.496 423.8 555.363 423.533 556.03 423C556.696 422.5 557.296 421.65 557.83 420.45L557.93 420.2L546.28 393.1H554.33L561.88 411.35L569.48 393.1H576.98ZM588.813 391.5V400.75H605.013V407.25H588.813V420H580.713V385H607.163V391.5H588.813ZM611.608 393.1H619.408V420H611.608V393.1ZM615.508 389.35C614.074 389.35 612.908 388.933 612.008 388.1C611.108 387.267 610.658 386.233 610.658 385C610.658 383.767 611.108 382.733 612.008 381.9C612.908 381.067 614.074 380.65 615.508 380.65C616.941 380.65 618.108 381.05 619.008 381.85C619.908 382.65 620.358 383.65 620.358 384.85C620.358 386.15 619.908 387.233 619.008 388.1C618.108 388.933 616.941 389.35 615.508 389.35ZM629.597 420.4C628.23 420.4 627.08 419.933 626.147 419C625.214 418.067 624.747 416.9 624.747 415.5C624.747 414.067 625.214 412.917 626.147 412.05C627.08 411.15 628.23 410.7 629.597 410.7C630.964 410.7 632.114 411.15 633.047 412.05C633.98 412.917 634.447 414.067 634.447 415.5C634.447 416.9 633.98 418.067 633.047 419C632.114 419.933 630.964 420.4 629.597 420.4Z" fill="#0C1712"/>
<defs>
<filter id="filter0_b_57_1321" x="175" y="6" width="608" height="740" filterUnits="userSpaceOnUse" color-interpolation-filters="sRGB">
<feFlood flood-opacity="0" result="BackgroundImageFix"/>
<feGaussianBlur in="BackgroundImage" stdDeviation="25"/>
<feComposite in2="SourceAlpha" operator="in" result="effect1_backgroundBlur_57_1321"/>
<feBlend mode="normal" in="SourceGraphic" in2="effect1_backgroundBlur_57_1321" result="shape"/>
</filter>
<filter id="filter1_f_57_1321" x="245" y="-283" width="874" height="874" filterUnits="userSpaceOnUse" color-interpolation-filters="sRGB">
<feFlood flood-opacity="0" result="BackgroundImageFix"/>
<feBlend mode="normal" in="SourceGraphic" in2="BackgroundImageFix" result="shape"/>
<feGaussianBlur stdDeviation="150" result="effect1_foregroundBlur_57_1321"/>
</filter>
<filter id="filter2_f_57_1321" x="23" y="179" width="874" height="874" filterUnits="userSpaceOnUse" color-interpolation-filters="sRGB">
<feFlood flood-opacity="0" result="BackgroundImageFix"/>
<feBlend mode="normal" in="SourceGraphic" in2="BackgroundImageFix" result="shape"/>
<feGaussianBlur stdDeviation="150" result="effect1_foregroundBlur_57_1321"/>
</filter>
<linearGradient id="paint0_linear_57_1321" x1="754" y1="78.922" x2="1414.09" y2="411.724" gradientUnits="userSpaceOnUse">
<stop stop-color="#00C16E" stop-opacity="0.5"/>
<stop offset="1" stop-color="#1E918C" stop-opacity="0.1"/>
</linearGradient>
<clipPath id="clip0_57_1321">
<rect x="733" y="56" width="640" height="508" rx="30" transform="rotate(90 733 56)" fill="white"/>
</clipPath>
</defs>
</svg>
